ISO-10303-21;
HEADER;
FILE_DESCRIPTION(('STEP AP214'),'1');
FILE_NAME('Profile.stp','2018-04-30T05:02:33',(' '),(' '),'Spatial InterOp 3D',' ',' ');
FILE_SCHEMA(('automotive_design'));
ENDSEC;
DATA;
#1=PRODUCT_DEFINITION_CONTEXT('',#9,'design');
#2=APPLICATION_PROTOCOL_DEFINITION('INTERNATIONAL STANDARD','automotive_design',1994,#9);
#3=PRODUCT_CATEGORY_RELATIONSHIP('NONE','NONE',#10,#11);
#4=SHAPE_DEFINITION_REPRESENTATION(#12,#13);
#5= (GEOMETRIC_REPRESENTATION_CONTEXT(3)GLOBAL_UNCERTAINTY_ASSIGNED_CONTEXT((#16))GLOBAL_UNIT_ASSIGNED_CONTEXT((#18,#19,#20))REPRESENTATION_CONTEXT('NONE','WORKSPACE'));
#9=APPLICATION_CONTEXT(' ');
#10=PRODUCT_CATEGORY('part','NONE');
#11=PRODUCT_RELATED_PRODUCT_CATEGORY('detail',' ',(#22));
#12=PRODUCT_DEFINITION_SHAPE('NONE','NONE',#23);
#13=MANIFOLD_SURFACE_SHAPE_REPRESENTATION('1',(#24,#25),#5);
#16=UNCERTAINTY_MEASURE_WITH_UNIT(LENGTH_MEASURE(1.0E-006),#18,'','');
#18= (CONVERSION_BASED_UNIT('MILLIMETRE',#28)LENGTH_UNIT()NAMED_UNIT(#31));
#19= (NAMED_UNIT(#33)PLANE_ANGLE_UNIT()SI_UNIT($,.RADIAN.));
#20= (NAMED_UNIT(#33)SOLID_ANGLE_UNIT()SI_UNIT($,.STERADIAN.));
#22=PRODUCT('1','1','PART-1-DESC',(#39));
#23=PRODUCT_DEFINITION('NONE','NONE',#40,#1);
#24=SHELL_BASED_SURFACE_MODEL('1',(#41));
#25=AXIS2_PLACEMENT_3D('',#42,#43,#44);
#28=LENGTH_MEASURE_WITH_UNIT(LENGTH_MEASURE(1.0),#45);
#31=DIMENSIONAL_EXPONENTS(1.0,0.0,0.0,0.0,0.0,0.0,0.0);
#33=DIMENSIONAL_EXPONENTS(0.0,0.0,0.0,0.0,0.0,0.0,0.0);
#39=PRODUCT_CONTEXT('',#9,'mechanical');
#40=PRODUCT_DEFINITION_FORMATION_WITH_SPECIFIED_SOURCE(' ','NONE',#22,.NOT_KNOWN.);
#41=CLOSED_SHELL('',(#46));
#42=CARTESIAN_POINT('',(0.0,0.0,0.0));
#43=DIRECTION('',(0.0,0.0,1.0));
#44=DIRECTION('',(1.0,0.0,0.0));
#45= (NAMED_UNIT(#31)LENGTH_UNIT()SI_UNIT(.MILLI.,.METRE.));
#46=FACE_SURFACE('',(#48,#49,#50,#51),#52,.T.);
#48=FACE_BOUND('',#53,.T.);
#49=FACE_BOUND('',#54,.T.);
#50=FACE_BOUND('',#55,.T.);
#51=FACE_BOUND('',#56,.T.);
#52=PLANE('',#57);
#53=EDGE_LOOP('',(#58,#59));
#54=EDGE_LOOP('',(#60,#61,#62,#63,#64));
#55=EDGE_LOOP('',(#65,#66));
#56=EDGE_LOOP('',(#67,#68,#69,#70));
#57=AXIS2_PLACEMENT_3D('',#71,#72,#73);
#58=ORIENTED_EDGE('',*,*,#74,.T.);
#59=ORIENTED_EDGE('',*,*,#75,.T.);
#60=ORIENTED_EDGE('',*,*,#76,.T.);
#61=ORIENTED_EDGE('',*,*,#77,.T.);
#62=ORIENTED_EDGE('',*,*,#78,.T.);
#63=ORIENTED_EDGE('',*,*,#79,.T.);
#64=ORIENTED_EDGE('',*,*,#80,.T.);
#65=ORIENTED_EDGE('',*,*,#81,.T.);
#66=ORIENTED_EDGE('',*,*,#82,.T.);
#67=ORIENTED_EDGE('',*,*,#83,.T.);
#68=ORIENTED_EDGE('',*,*,#84,.T.);
#69=ORIENTED_EDGE('',*,*,#85,.T.);
#70=ORIENTED_EDGE('',*,*,#86,.T.);
#71=CARTESIAN_POINT('',(1.5,1.0,0.0));
#72=DIRECTION('',(0.0,0.0,1.0));
#73=DIRECTION('',(1.0,0.0,0.0));
#74=EDGE_CURVE('',#87,#88,#89,.T.);
#75=EDGE_CURVE('',#88,#87,#90,.T.);
#76=EDGE_CURVE('',#91,#92,#93,.F.);
#77=EDGE_CURVE('',#92,#94,#95,.T.);
#78=EDGE_CURVE('',#94,#96,#97,.F.);
#79=EDGE_CURVE('',#96,#98,#99,.T.);
#80=EDGE_CURVE('',#98,#91,#100,.T.);
#81=EDGE_CURVE('',#101,#102,#103,.T.);
#82=EDGE_CURVE('',#102,#101,#104,.F.);
#83=EDGE_CURVE('',#105,#106,#107,.T.);
#84=EDGE_CURVE('',#106,#108,#109,.T.);
#85=EDGE_CURVE('',#108,#110,#111,.T.);
#86=EDGE_CURVE('',#110,#105,#112,.T.);
#87=VERTEX_POINT('',#113);
#88=VERTEX_POINT('',#114);
#89=B_SPLINE_CURVE_WITH_KNOTS('',3,(#115,#116,#117,#118,#119,#120,#121,#122,#123,#124,#125),.UNSPECIFIED.,.F.,.F.,(4,1,1,1,1,1,1,1,4),(0.0,0.292134342074027,0.757702800565931,0.999697913375585,1.16422985839447,1.23990002171061,1.31096036911864,1.46591960892553,1.49244611002615),.UNSPECIFIED.);
#90=B_SPLINE_CURVE_WITH_KNOTS('',3,(#126,#127,#128,#129,#130,#131,#132,#133,#134),.UNSPECIFIED.,.F.,.F.,(4,1,1,1,1,1,4),(1.49244611002615,1.77552665642156,2.17441372382525,2.52508548014635,2.69166875243884,2.82129878758761,2.9848922200523),.UNSPECIFIED.);
#91=VERTEX_POINT('',#135);
#92=VERTEX_POINT('',#136);
#93=LINE('',#137,#138);
#94=VERTEX_POINT('',#139);
#95=B_SPLINE_CURVE_WITH_KNOTS('',3,(#140,#141,#142,#143,#144,#145,#146,#147,#148),.UNSPECIFIED.,.F.,.F.,(4,1,1,1,1,1,4),(0.0,0.242935074324596,0.538847330475336,1.26353492451678,1.98223753217153,3.07461551332699,3.21164024765979),.UNSPECIFIED.);
#96=VERTEX_POINT('',#149);
#97=LINE('',#150,#151);
#98=VERTEX_POINT('',#152);
#99=B_SPLINE_CURVE_WITH_KNOTS('',3,(#153,#154,#155,#156,#157,#158,#159),.UNSPECIFIED.,.F.,.F.,(4,1,1,1,4),(0.0,0.231983754226043,0.389693244632633,0.597699345415782,0.788317456576138),.UNSPECIFIED.);
#100=B_SPLINE_CURVE_WITH_KNOTS('',3,(#160,#161,#162,#163,#164,#165,#166,#167),.UNSPECIFIED.,.F.,.F.,(4,1,1,1,1,4),(0.0,0.221737450740106,1.03780606197255,1.70156933401868,2.14534017030895,2.3716292242061),.UNSPECIFIED.);
#101=VERTEX_POINT('',#168);
#102=VERTEX_POINT('',#169);
#103=LINE('',#170,#171);
#104=B_SPLINE_CURVE_WITH_KNOTS('',3,(#172,#173,#174,#175,#176,#177,#178,#179,#180,#181,#182,#183,#184,#185,#186,#187),.UNSPECIFIED.,.F.,.F.,(4,1,1,1,1,1,1,1,1,1,1,1,1,4),(0.0,0.0929579103053249,0.222838001320585,0.358959016564677,0.480750548213678,0.56364129879161,0.614294181150759,0.699551079865757,0.771257240814537,0.842291000342242,0.916097231174706,0.991821328517714,1.04528527689907,1.06471619890484),.UNSPECIFIED.);
#105=VERTEX_POINT('',#188);
#106=VERTEX_POINT('',#189);
#107=LINE('',#190,#191);
#108=VERTEX_POINT('',#192);
#109=LINE('',#193,#194);
#110=VERTEX_POINT('',#195);
#111=LINE('',#196,#197);
#112=LINE('',#198,#199);
#113=CARTESIAN_POINT('',(2.25584845244885,0.659497201442719,0.0));
#114=CARTESIAN_POINT('',(2.77510087530829,-0.297653954771542,0.0));
#115=CARTESIAN_POINT('',(2.25584845244885,0.659497201442719,0.0));
#116=CARTESIAN_POINT('',(2.32098255507674,0.58622964264131,0.0));
#117=CARTESIAN_POINT('',(2.48715973257774,0.395937525269151,0.0));
#118=CARTESIAN_POINT('',(2.66988319133609,0.114507919648518,0.0));
#119=CARTESIAN_POINT('',(2.8035481649925,-0.140420240916789,0.0));
#120=CARTESIAN_POINT('',(2.86496988758064,-0.275715317844805,0.0));
#121=CARTESIAN_POINT('',(2.92514879242776,-0.372335349644481,0.0));
#122=CARTESIAN_POINT('',(2.89380914359411,-0.459872343059606,0.0));
#123=CARTESIAN_POINT('',(2.82587146759477,-0.36080075193133,0.0));
#124=CARTESIAN_POINT('',(2.78150077565113,-0.305444781861105,0.0));
#125=CARTESIAN_POINT('',(2.77510087530829,-0.297653954771542,0.0));
#126=CARTESIAN_POINT('',(2.77510087530829,-0.297653954771542,0.0));
#127=CARTESIAN_POINT('',(2.70680361744324,-0.214513265352304,0.0));
#128=CARTESIAN_POINT('',(2.56571369946826,-0.0965722552535012,0.0));
#129=CARTESIAN_POINT('',(2.33468698014356,0.189766654171311,0.0));
#130=CARTESIAN_POINT('',(2.07855307638494,0.358599339873556,0.0));
#131=CARTESIAN_POINT('',(1.99360146472818,0.578679906932255,0.0));
#132=CARTESIAN_POINT('',(2.1033670495815,0.736666374167695,0.0));
#133=CARTESIAN_POINT('',(2.20400702564961,0.685117561509163,0.0));
#134=CARTESIAN_POINT('',(2.25584845244885,0.659497201442719,0.0));
#135=CARTESIAN_POINT('',(-1.04050981998443,1.25688987970352,2.07685685541341E-016));
#136=CARTESIAN_POINT('',(-1.05186235904693,1.29090958833694,2.09075970603849E-016));
#137=CARTESIAN_POINT('',(-1.05186235904693,1.29090958833694,2.09075970603849E-016));
#138=VECTOR('',#200,1.0);
#139=CARTESIAN_POINT('',(1.9332135617733,1.02664041519165,-1.56490396560584E-016));
#140=CARTESIAN_POINT('',(-1.05186235904693,1.29090958833694,0.0));
#141=CARTESIAN_POINT('',(-1.04885046966025,1.36572463185454,0.0));
#142=CARTESIAN_POINT('',(-0.951829953952657,1.52560617895915,0.0));
#143=CARTESIAN_POINT('',(-0.506992198922959,1.60982381285372,0.0));
#144=CARTESIAN_POINT('',(0.0624923867376662,1.55588289242738,0.0));
#145=CARTESIAN_POINT('',(0.887996608286886,1.35108257779531,0.0));
#146=CARTESIAN_POINT('',(1.50652614630625,1.15739480607562,0.0));
#147=CARTESIAN_POINT('',(1.90273688799803,1.05255817566624,0.0));
#148=CARTESIAN_POINT('',(1.9332135617733,1.02664041519165,0.0));
#149=CARTESIAN_POINT('',(1.90501815080643,0.997595608234405,0.0));
#150=CARTESIAN_POINT('',(1.90501815080643,0.997595608234405,-1.53037454581462E-016));
#151=VECTOR('',#201,1.0);
#152=CARTESIAN_POINT('',(1.2819162607193,0.785164654254913,0.0));
#153=CARTESIAN_POINT('',(1.90501815080643,0.997595608234405,0.0));
#154=CARTESIAN_POINT('',(1.83454609541478,0.999684289453845,0.0));
#155=CARTESIAN_POINT('',(1.71007088173388,1.03417730593746,0.0));
#156=CARTESIAN_POINT('',(1.51343203276477,1.08760922913678,0.0));
#157=CARTESIAN_POINT('',(1.32302390749346,0.984160983539059,0.0));
#158=CARTESIAN_POINT('',(1.29521446024622,0.849539365521711,0.0));
#159=CARTESIAN_POINT('',(1.2819162607193,0.785164654254913,0.0));
#160=CARTESIAN_POINT('',(1.2819162607193,0.785164654254913,0.0));
#161=CARTESIAN_POINT('',(1.20807495686922,0.788984726403576,0.0));
#162=CARTESIAN_POINT('',(0.862472748023652,0.806863952577696,0.0));
#163=CARTESIAN_POINT('',(0.303220189313919,0.914118070707042,0.0));
#164=CARTESIAN_POINT('',(-0.326915284432968,1.02149491183893,0.0));
#165=CARTESIAN_POINT('',(-0.770612109530827,1.0836001415663,0.0));
#166=CARTESIAN_POINT('',(-0.978030086097938,1.16793078264054,0.0));
#167=CARTESIAN_POINT('',(-1.04050981998443,1.25688987970352,0.0));
#168=CARTESIAN_POINT('',(2.22455677390099,0.759893715381622,-1.92169649779132E-016));
#169=CARTESIAN_POINT('',(2.19886380434037,0.74589467048645,-1.89023168485831E-016));
#170=CARTESIAN_POINT('',(2.22455677390099,0.759893715381622,-1.92169649779132E-016));
#171=VECTOR('',#202,1.0);
#172=CARTESIAN_POINT('',(2.22455677390099,0.759893715381622,0.0));
#173=CARTESIAN_POINT('',(2.20613136726993,0.784803477138345,0.0));
#174=CARTESIAN_POINT('',(2.16196212149303,0.844516970105302,0.0));
#175=CARTESIAN_POINT('',(2.06195916876498,0.918483019973169,0.0));
#176=CARTESIAN_POINT('',(1.93062694308488,0.935325039828295,0.0));
#177=CARTESIAN_POINT('',(1.81430631884005,0.917402162976832,0.0));
#178=CARTESIAN_POINT('',(1.75041382137896,0.845350096986718,0.0));
#179=CARTESIAN_POINT('',(1.76966108726055,0.761505002175048,0.0));
#180=CARTESIAN_POINT('',(1.85365556355632,0.762158024321944,0.0));
#181=CARTESIAN_POINT('',(1.92804481809523,0.763004603951015,0.0));
#182=CARTESIAN_POINT('',(1.98960579935289,0.80820945476721,0.0));
#183=CARTESIAN_POINT('',(2.06602629107276,0.81052672902944,0.0));
#184=CARTESIAN_POINT('',(2.13188913512228,0.790653206925179,0.0));
#185=CARTESIAN_POINT('',(2.17292896701298,0.762435987129554,0.0));
#186=CARTESIAN_POINT('',(2.19340554843722,0.749375962390202,0.0));
#187=CARTESIAN_POINT('',(2.19886380434037,0.74589467048645,0.0));
#188=CARTESIAN_POINT('',(6.5,4.0,0.0));
#189=CARTESIAN_POINT('',(-3.5,4.0,0.0));
#190=CARTESIAN_POINT('',(6.5,4.0,0.0));
#191=VECTOR('',#203,1.0);
#192=CARTESIAN_POINT('',(-3.5,-2.0,0.0));
#193=CARTESIAN_POINT('',(-3.5,4.0,0.0));
#194=VECTOR('',#204,1.0);
#195=CARTESIAN_POINT('',(6.5,-2.0,0.0));
#196=CARTESIAN_POINT('',(-3.5,-2.0,0.0));
#197=VECTOR('',#205,1.0);
#198=CARTESIAN_POINT('',(6.5,-2.0,0.0));
#199=VECTOR('',#206,1.0);
#200=DIRECTION('',(0.316544851623718,-0.948577543962811,-3.8765563932755E-017));
#201=DIRECTION('',(0.696537235310737,0.717520647665052,-8.53012095710238E-017));
#202=DIRECTION('',(-0.878115334021803,-0.478449015210374,1.075381133092E-016));
#203=DIRECTION('',(-1.0,0.0,0.0));
#204=DIRECTION('',(0.0,-1.0,0.0));
#205=DIRECTION('',(1.0,0.0,0.0));
#206=DIRECTION('',(0.0,1.0,0.0));
ENDSEC;
END-ISO-10303-21;
