ISO-10303-21;
HEADER;
FILE_DESCRIPTION(('STEP AP214'),'1');
FILE_NAME('W2_ConnectingRod.stp','2018-04-13T05:05:39',(' '),(' '),'Spatial InterOp 3D',' ',' ');
FILE_SCHEMA(('automotive_design'));
ENDSEC;
DATA;
#1=PRODUCT_DEFINITION_CONTEXT('',#9,'design');
#2=APPLICATION_PROTOCOL_DEFINITION('INTERNATIONAL STANDARD','automotive_design',1994,#9);
#3=PRODUCT_CATEGORY_RELATIONSHIP('NONE','NONE',#10,#11);
#4=SHAPE_DEFINITION_REPRESENTATION(#12,#13);
#5= (GEOMETRIC_REPRESENTATION_CONTEXT(3)GLOBAL_UNCERTAINTY_ASSIGNED_CONTEXT((#16))GLOBAL_UNIT_ASSIGNED_CONTEXT((#18,#19,#20))REPRESENTATION_CONTEXT('NONE','WORKSPACE'));
#9=APPLICATION_CONTEXT(' ');
#10=PRODUCT_CATEGORY('part','NONE');
#11=PRODUCT_RELATED_PRODUCT_CATEGORY('detail',' ',(#22));
#12=PRODUCT_DEFINITION_SHAPE('NONE','NONE',#23);
#13=ADVANCED_BREP_SHAPE_REPRESENTATION('1',(#24,#25),#5);
#16=UNCERTAINTY_MEASURE_WITH_UNIT(LENGTH_MEASURE(1.0E-006),#18,'','');
#18= (CONVERSION_BASED_UNIT('MILLIMETRE',#28)LENGTH_UNIT()NAMED_UNIT(#31));
#19= (NAMED_UNIT(#33)PLANE_ANGLE_UNIT()SI_UNIT($,.RADIAN.));
#20= (NAMED_UNIT(#33)SOLID_ANGLE_UNIT()SI_UNIT($,.STERADIAN.));
#22=PRODUCT('1','1','PART-1-DESC',(#39));
#23=PRODUCT_DEFINITION('NONE','NONE',#40,#1);
#24=MANIFOLD_SOLID_BREP('1',#41);
#25=AXIS2_PLACEMENT_3D('',#42,#43,#44);
#28=LENGTH_MEASURE_WITH_UNIT(LENGTH_MEASURE(1.0),#45);
#31=DIMENSIONAL_EXPONENTS(1.0,0.0,0.0,0.0,0.0,0.0,0.0);
#33=DIMENSIONAL_EXPONENTS(0.0,0.0,0.0,0.0,0.0,0.0,0.0);
#39=PRODUCT_CONTEXT('',#9,'mechanical');
#40=PRODUCT_DEFINITION_FORMATION_WITH_SPECIFIED_SOURCE(' ','NONE',#22,.NOT_KNOWN.);
#41=CLOSED_SHELL('',(#46,#47,#48,#49,#50,#51,#52,#53,#54,#55,#56,#57,#58,#59,#60));
#42=CARTESIAN_POINT('',(0.0,0.0,0.0));
#43=DIRECTION('',(0.0,0.0,1.0));
#44=DIRECTION('',(1.0,0.0,0.0));
#45= (NAMED_UNIT(#31)LENGTH_UNIT()SI_UNIT(.MILLI.,.METRE.));
#46=ADVANCED_FACE('',(#62),#63,.F.);
#47=ADVANCED_FACE('',(#64),#65,.T.);
#48=ADVANCED_FACE('',(#66),#67,.T.);
#49=ADVANCED_FACE('',(#68),#69,.F.);
#50=ADVANCED_FACE('',(#70,#71),#72,.T.);
#51=ADVANCED_FACE('',(#73),#74,.F.);
#52=ADVANCED_FACE('',(#75),#76,.T.);
#53=ADVANCED_FACE('',(#77),#78,.T.);
#54=ADVANCED_FACE('',(#79),#80,.T.);
#55=ADVANCED_FACE('',(#81),#82,.T.);
#56=ADVANCED_FACE('',(#83),#84,.F.);
#57=ADVANCED_FACE('',(#85),#86,.T.);
#58=ADVANCED_FACE('',(#87),#88,.F.);
#59=ADVANCED_FACE('',(#89,#90,#91),#92,.T.);
#60=ADVANCED_FACE('',(#93,#94),#95,.F.);
#62=FACE_OUTER_BOUND('',#96,.T.);
#63=CYLINDRICAL_SURFACE('',#97,0.04);
#64=FACE_OUTER_BOUND('',#98,.T.);
#65=CYLINDRICAL_SURFACE('',#99,0.06);
#66=FACE_OUTER_BOUND('',#100,.T.);
#67=CYLINDRICAL_SURFACE('',#101,0.05);
#68=FACE_OUTER_BOUND('',#102,.T.);
#69=CYLINDRICAL_SURFACE('',#103,0.0296333149006317);
#70=FACE_BOUND('',#104,.T.);
#71=FACE_OUTER_BOUND('',#105,.T.);
#72=PLANE('',#106);
#73=FACE_OUTER_BOUND('',#107,.T.);
#74=CYLINDRICAL_SURFACE('',#108,0.0296333149006317);
#75=FACE_OUTER_BOUND('',#109,.T.);
#76=PLANE('',#110);
#77=FACE_OUTER_BOUND('',#111,.T.);
#78=PLANE('',#112);
#79=FACE_OUTER_BOUND('',#113,.T.);
#80=CYLINDRICAL_SURFACE('',#114,0.05);
#81=FACE_OUTER_BOUND('',#115,.T.);
#82=PLANE('',#116);
#83=FACE_OUTER_BOUND('',#117,.T.);
#84=PLANE('',#118);
#85=FACE_OUTER_BOUND('',#119,.T.);
#86=CYLINDRICAL_SURFACE('',#120,0.06);
#87=FACE_OUTER_BOUND('',#121,.T.);
#88=CYLINDRICAL_SURFACE('',#122,0.04);
#89=FACE_BOUND('',#123,.T.);
#90=FACE_BOUND('',#124,.T.);
#91=FACE_OUTER_BOUND('',#125,.T.);
#92=PLANE('',#126);
#93=FACE_BOUND('',#127,.T.);
#94=FACE_OUTER_BOUND('',#128,.T.);
#95=PLANE('',#129);
#96=EDGE_LOOP('',(#130,#131,#132,#133));
#97=AXIS2_PLACEMENT_3D('',#134,#135,#136);
#98=EDGE_LOOP('',(#137,#138,#139,#140,#141,#142,#143));
#99=AXIS2_PLACEMENT_3D('',#144,#145,#146);
#100=EDGE_LOOP('',(#147,#148,#149,#150,#151));
#101=AXIS2_PLACEMENT_3D('',#152,#153,#154);
#102=EDGE_LOOP('',(#155,#156,#157,#158));
#103=AXIS2_PLACEMENT_3D('',#159,#160,#161);
#104=EDGE_LOOP('',(#162,#163,#164));
#105=EDGE_LOOP('',(#165,#166,#167));
#106=AXIS2_PLACEMENT_3D('',#168,#169,#170);
#107=EDGE_LOOP('',(#171,#172,#173,#174,#175,#176));
#108=AXIS2_PLACEMENT_3D('',#177,#178,#179);
#109=EDGE_LOOP('',(#180,#181,#182,#183));
#110=AXIS2_PLACEMENT_3D('',#184,#185,#186);
#111=EDGE_LOOP('',(#187,#188,#189,#190));
#112=AXIS2_PLACEMENT_3D('',#191,#192,#193);
#113=EDGE_LOOP('',(#194,#195,#196,#197,#198,#199,#200));
#114=AXIS2_PLACEMENT_3D('',#201,#202,#203);
#115=EDGE_LOOP('',(#204,#205,#206,#207));
#116=AXIS2_PLACEMENT_3D('',#208,#209,#210);
#117=EDGE_LOOP('',(#211,#212,#213,#214,#215));
#118=AXIS2_PLACEMENT_3D('',#216,#217,#218);
#119=EDGE_LOOP('',(#219,#220,#221,#222,#223,#224));
#120=AXIS2_PLACEMENT_3D('',#225,#226,#227);
#121=EDGE_LOOP('',(#228,#229,#230,#231,#232,#233));
#122=AXIS2_PLACEMENT_3D('',#234,#235,#236);
#123=EDGE_LOOP('',(#237,#238,#239));
#124=EDGE_LOOP('',(#240,#241,#242));
#125=EDGE_LOOP('',(#243,#244,#245,#246,#247,#248,#249,#250));
#126=AXIS2_PLACEMENT_3D('',#251,#252,#253);
#127=EDGE_LOOP('',(#254,#255,#256));
#128=EDGE_LOOP('',(#257,#258,#259));
#129=AXIS2_PLACEMENT_3D('',#260,#261,#262);
#130=ORIENTED_EDGE('',*,*,#263,.F.);
#131=ORIENTED_EDGE('',*,*,#264,.F.);
#132=ORIENTED_EDGE('',*,*,#265,.F.);
#133=ORIENTED_EDGE('',*,*,#266,.T.);
#134=CARTESIAN_POINT('',(0.0,0.0,0.0));
#135=DIRECTION('',(0.0,0.0,1.0));
#136=DIRECTION('',(1.0,0.0,0.0));
#137=ORIENTED_EDGE('',*,*,#267,.F.);
#138=ORIENTED_EDGE('',*,*,#268,.T.);
#139=ORIENTED_EDGE('',*,*,#269,.T.);
#140=ORIENTED_EDGE('',*,*,#270,.F.);
#141=ORIENTED_EDGE('',*,*,#271,.T.);
#142=ORIENTED_EDGE('',*,*,#272,.T.);
#143=ORIENTED_EDGE('',*,*,#273,.F.);
#144=CARTESIAN_POINT('',(0.0,0.0,0.0));
#145=DIRECTION('',(0.0,0.0,1.0));
#146=DIRECTION('',(1.0,0.0,0.0));
#147=ORIENTED_EDGE('',*,*,#274,.F.);
#148=ORIENTED_EDGE('',*,*,#275,.F.);
#149=ORIENTED_EDGE('',*,*,#276,.F.);
#150=ORIENTED_EDGE('',*,*,#277,.F.);
#151=ORIENTED_EDGE('',*,*,#278,.T.);
#152=CARTESIAN_POINT('',(0.01,-0.3,0.1));
#153=DIRECTION('',(0.0,0.0,-1.0));
#154=DIRECTION('',(1.0,0.0,0.0));
#155=ORIENTED_EDGE('',*,*,#279,.F.);
#156=ORIENTED_EDGE('',*,*,#280,.F.);
#157=ORIENTED_EDGE('',*,*,#281,.F.);
#158=ORIENTED_EDGE('',*,*,#282,.T.);
#159=CARTESIAN_POINT('',(0.01,-0.3,0.05));
#160=DIRECTION('',(0.0,0.0,1.0));
#161=DIRECTION('',(1.0,0.0,0.0));
#162=ORIENTED_EDGE('',*,*,#283,.F.);
#163=ORIENTED_EDGE('',*,*,#284,.F.);
#164=ORIENTED_EDGE('',*,*,#282,.F.);
#165=ORIENTED_EDGE('',*,*,#285,.F.);
#166=ORIENTED_EDGE('',*,*,#286,.F.);
#167=ORIENTED_EDGE('',*,*,#278,.F.);
#168=CARTESIAN_POINT('',(0.00999999999999999,-0.3,0.01));
#169=DIRECTION('',(0.0,0.0,-1.0));
#170=DIRECTION('',(1.0,0.0,0.0));
#171=ORIENTED_EDGE('',*,*,#279,.T.);
#172=ORIENTED_EDGE('',*,*,#284,.T.);
#173=ORIENTED_EDGE('',*,*,#283,.T.);
#174=ORIENTED_EDGE('',*,*,#281,.T.);
#175=ORIENTED_EDGE('',*,*,#287,.F.);
#176=ORIENTED_EDGE('',*,*,#288,.F.);
#177=CARTESIAN_POINT('',(0.01,-0.3,0.05));
#178=DIRECTION('',(0.0,0.0,1.0));
#179=DIRECTION('',(1.0,0.0,0.0));
#180=ORIENTED_EDGE('',*,*,#289,.T.);
#181=ORIENTED_EDGE('',*,*,#290,.F.);
#182=ORIENTED_EDGE('',*,*,#291,.F.);
#183=ORIENTED_EDGE('',*,*,#292,.F.);
#184=CARTESIAN_POINT('',(-0.0284857559947523,-0.0841951521601839,0.1));
#185=DIRECTION('',(-0.920676888596629,-0.390325590762418,-0.0));
#186=DIRECTION('',(-0.390325590762418,0.920676888596629,0.0));
#187=ORIENTED_EDGE('',*,*,#293,.T.);
#188=ORIENTED_EDGE('',*,*,#294,.F.);
#189=ORIENTED_EDGE('',*,*,#295,.F.);
#190=ORIENTED_EDGE('',*,*,#290,.T.);
#191=CARTESIAN_POINT('',(-0.0227840274096751,-0.212737747845687,0.1));
#192=DIRECTION('',(-0.978700755949387,0.205292060986534,0.0));
#193=DIRECTION('',(0.205292060986534,0.978700755949387,-0.0));
#194=ORIENTED_EDGE('',*,*,#274,.T.);
#195=ORIENTED_EDGE('',*,*,#286,.T.);
#196=ORIENTED_EDGE('',*,*,#285,.T.);
#197=ORIENTED_EDGE('',*,*,#277,.T.);
#198=ORIENTED_EDGE('',*,*,#296,.F.);
#199=ORIENTED_EDGE('',*,*,#294,.T.);
#200=ORIENTED_EDGE('',*,*,#297,.F.);
#201=CARTESIAN_POINT('',(0.01,-0.3,0.1));
#202=DIRECTION('',(0.0,0.0,-1.0));
#203=DIRECTION('',(1.0,0.0,0.0));
#204=ORIENTED_EDGE('',*,*,#298,.T.);
#205=ORIENTED_EDGE('',*,*,#273,.T.);
#206=ORIENTED_EDGE('',*,*,#299,.T.);
#207=ORIENTED_EDGE('',*,*,#275,.T.);
#208=CARTESIAN_POINT('',(0.06,-0.15,0.1));
#209=DIRECTION('',(1.0,-6.93889390390723E-017,0.0));
#210=DIRECTION('',(-6.93889390390723E-017,-1.0,0.0));
#211=ORIENTED_EDGE('',*,*,#297,.T.);
#212=ORIENTED_EDGE('',*,*,#293,.F.);
#213=ORIENTED_EDGE('',*,*,#289,.F.);
#214=ORIENTED_EDGE('',*,*,#300,.F.);
#215=ORIENTED_EDGE('',*,*,#298,.F.);
#216=CARTESIAN_POINT('',(0.0160369499503075,-0.166965110524119,0.05));
#217=DIRECTION('',(0.0,0.0,1.0));
#218=DIRECTION('',(1.0,0.0,0.0));
#219=ORIENTED_EDGE('',*,*,#267,.T.);
#220=ORIENTED_EDGE('',*,*,#300,.T.);
#221=ORIENTED_EDGE('',*,*,#292,.T.);
#222=ORIENTED_EDGE('',*,*,#301,.T.);
#223=ORIENTED_EDGE('',*,*,#270,.T.);
#224=ORIENTED_EDGE('',*,*,#302,.T.);
#225=CARTESIAN_POINT('',(0.0,0.0,0.0));
#226=DIRECTION('',(0.0,0.0,1.0));
#227=DIRECTION('',(1.0,0.0,0.0));
#228=ORIENTED_EDGE('',*,*,#263,.T.);
#229=ORIENTED_EDGE('',*,*,#303,.T.);
#230=ORIENTED_EDGE('',*,*,#304,.T.);
#231=ORIENTED_EDGE('',*,*,#265,.T.);
#232=ORIENTED_EDGE('',*,*,#305,.F.);
#233=ORIENTED_EDGE('',*,*,#306,.F.);
#234=CARTESIAN_POINT('',(0.0,0.0,0.0));
#235=DIRECTION('',(0.0,0.0,1.0));
#236=DIRECTION('',(1.0,0.0,0.0));
#237=ORIENTED_EDGE('',*,*,#287,.T.);
#238=ORIENTED_EDGE('',*,*,#280,.T.);
#239=ORIENTED_EDGE('',*,*,#288,.T.);
#240=ORIENTED_EDGE('',*,*,#304,.F.);
#241=ORIENTED_EDGE('',*,*,#303,.F.);
#242=ORIENTED_EDGE('',*,*,#266,.F.);
#243=ORIENTED_EDGE('',*,*,#272,.F.);
#244=ORIENTED_EDGE('',*,*,#271,.F.);
#245=ORIENTED_EDGE('',*,*,#301,.F.);
#246=ORIENTED_EDGE('',*,*,#291,.T.);
#247=ORIENTED_EDGE('',*,*,#295,.T.);
#248=ORIENTED_EDGE('',*,*,#296,.T.);
#249=ORIENTED_EDGE('',*,*,#276,.T.);
#250=ORIENTED_EDGE('',*,*,#299,.F.);
#251=CARTESIAN_POINT('',(0.0,0.0,0.1));
#252=DIRECTION('',(0.0,0.0,1.0));
#253=DIRECTION('',(1.0,0.0,0.0));
#254=ORIENTED_EDGE('',*,*,#305,.T.);
#255=ORIENTED_EDGE('',*,*,#264,.T.);
#256=ORIENTED_EDGE('',*,*,#306,.T.);
#257=ORIENTED_EDGE('',*,*,#269,.F.);
#258=ORIENTED_EDGE('',*,*,#268,.F.);
#259=ORIENTED_EDGE('',*,*,#302,.F.);
#260=CARTESIAN_POINT('',(0.0,0.0,0.0));
#261=DIRECTION('',(0.0,0.0,1.0));
#262=DIRECTION('',(1.0,0.0,0.0));
#263=EDGE_CURVE('',#307,#308,#309,.T.);
#264=EDGE_CURVE('',#310,#307,#311,.T.);
#265=EDGE_CURVE('',#312,#310,#313,.T.);
#266=EDGE_CURVE('',#312,#308,#314,.T.);
#267=EDGE_CURVE('',#315,#316,#317,.T.);
#268=EDGE_CURVE('',#315,#318,#319,.T.);
#269=EDGE_CURVE('',#318,#320,#321,.T.);
#270=EDGE_CURVE('',#322,#320,#323,.T.);
#271=EDGE_CURVE('',#322,#324,#325,.T.);
#272=EDGE_CURVE('',#324,#326,#327,.T.);
#273=EDGE_CURVE('',#316,#326,#328,.T.);
#274=EDGE_CURVE('',#329,#330,#331,.T.);
#275=EDGE_CURVE('',#332,#329,#333,.T.);
#276=EDGE_CURVE('',#334,#332,#335,.T.);
#277=EDGE_CURVE('',#336,#334,#337,.T.);
#278=EDGE_CURVE('',#336,#330,#338,.T.);
#279=EDGE_CURVE('',#339,#340,#341,.T.);
#280=EDGE_CURVE('',#342,#339,#343,.T.);
#281=EDGE_CURVE('',#344,#342,#345,.T.);
#282=EDGE_CURVE('',#344,#340,#346,.T.);
#283=EDGE_CURVE('',#347,#344,#348,.T.);
#284=EDGE_CURVE('',#340,#347,#349,.T.);
#285=EDGE_CURVE('',#350,#336,#351,.T.);
#286=EDGE_CURVE('',#330,#350,#352,.T.);
#287=EDGE_CURVE('',#353,#342,#354,.T.);
#288=EDGE_CURVE('',#339,#353,#355,.T.);
#289=EDGE_CURVE('',#356,#357,#358,.T.);
#290=EDGE_CURVE('',#359,#357,#360,.T.);
#291=EDGE_CURVE('',#361,#359,#362,.T.);
#292=EDGE_CURVE('',#356,#361,#363,.T.);
#293=EDGE_CURVE('',#357,#364,#365,.T.);
#294=EDGE_CURVE('',#366,#364,#367,.T.);
#295=EDGE_CURVE('',#359,#366,#368,.T.);
#296=EDGE_CURVE('',#366,#334,#369,.T.);
#297=EDGE_CURVE('',#329,#364,#370,.T.);
#298=EDGE_CURVE('',#329,#316,#371,.T.);
#299=EDGE_CURVE('',#326,#332,#372,.T.);
#300=EDGE_CURVE('',#316,#356,#373,.T.);
#301=EDGE_CURVE('',#361,#322,#374,.T.);
#302=EDGE_CURVE('',#320,#315,#375,.T.);
#303=EDGE_CURVE('',#308,#376,#377,.T.);
#304=EDGE_CURVE('',#376,#312,#378,.T.);
#305=EDGE_CURVE('',#379,#310,#380,.T.);
#306=EDGE_CURVE('',#307,#379,#381,.T.);
#307=VERTEX_POINT('',#382);
#308=VERTEX_POINT('',#383);
#309=LINE('',#384,#385);
#310=VERTEX_POINT('',#386);
#311=CIRCLE('',#387,0.04);
#312=VERTEX_POINT('',#388);
#313=LINE('',#389,#390);
#314=CIRCLE('',#391,0.04);
#315=VERTEX_POINT('',#392);
#316=VERTEX_POINT('',#393);
#317=LINE('',#394,#395);
#318=VERTEX_POINT('',#396);
#319=CIRCLE('',#397,0.06);
#320=VERTEX_POINT('',#398);
#321=CIRCLE('',#399,0.06);
#322=VERTEX_POINT('',#400);
#323=LINE('',#401,#402);
#324=VERTEX_POINT('',#403);
#325=CIRCLE('',#404,0.06);
#326=VERTEX_POINT('',#405);
#327=CIRCLE('',#406,0.06);
#328=LINE('',#407,#408);
#329=VERTEX_POINT('',#409);
#330=VERTEX_POINT('',#410);
#331=LINE('',#411,#412);
#332=VERTEX_POINT('',#413);
#333=LINE('',#414,#415);
#334=VERTEX_POINT('',#416);
#335=CIRCLE('',#417,0.05);
#336=VERTEX_POINT('',#418);
#337=LINE('',#419,#420);
#338=CIRCLE('',#421,0.05);
#339=VERTEX_POINT('',#422);
#340=VERTEX_POINT('',#423);
#341=LINE('',#424,#425);
#342=VERTEX_POINT('',#426);
#343=CIRCLE('',#427,0.0296333149006317);
#344=VERTEX_POINT('',#428);
#345=LINE('',#429,#430);
#346=CIRCLE('',#431,0.0296333149006317);
#347=VERTEX_POINT('',#432);
#348=CIRCLE('',#433,0.0296333149006317);
#349=CIRCLE('',#434,0.0296333149006317);
#350=VERTEX_POINT('',#435);
#351=CIRCLE('',#436,0.05);
#352=CIRCLE('',#437,0.05);
#353=VERTEX_POINT('',#438);
#354=CIRCLE('',#439,0.0296333149006317);
#355=CIRCLE('',#440,0.0296333149006317);
#356=VERTEX_POINT('',#441);
#357=VERTEX_POINT('',#442);
#358=LINE('',#443,#444);
#359=VERTEX_POINT('',#445);
#360=LINE('',#446,#447);
#361=VERTEX_POINT('',#448);
#362=LINE('',#449,#450);
#363=LINE('',#451,#452);
#364=VERTEX_POINT('',#453);
#365=LINE('',#454,#455);
#366=VERTEX_POINT('',#456);
#367=LINE('',#457,#458);
#368=LINE('',#459,#460);
#369=CIRCLE('',#461,0.05);
#370=CIRCLE('',#462,0.05);
#371=LINE('',#463,#464);
#372=LINE('',#465,#466);
#373=CIRCLE('',#467,0.06);
#374=CIRCLE('',#468,0.06);
#375=CIRCLE('',#469,0.06);
#376=VERTEX_POINT('',#470);
#377=CIRCLE('',#471,0.04);
#378=CIRCLE('',#472,0.04);
#379=VERTEX_POINT('',#473);
#380=CIRCLE('',#474,0.04);
#381=CIRCLE('',#475,0.04);
#382=CARTESIAN_POINT('',(0.04,-4.89858719658941E-018,0.0));
#383=CARTESIAN_POINT('',(0.04,-4.89858719658941E-018,0.1));
#384=CARTESIAN_POINT('',(0.04,-4.89858719658941E-018,0.0));
#385=VECTOR('',#476,1.0);
#386=CARTESIAN_POINT('',(-0.04,4.89858719658941E-018,0.0));
#387=AXIS2_PLACEMENT_3D('',#477,#478,#479);
#388=CARTESIAN_POINT('',(-0.04,4.89858719658941E-018,0.1));
#389=CARTESIAN_POINT('',(-0.04,4.89858719658941E-018,0.0));
#390=VECTOR('',#480,1.0);
#391=AXIS2_PLACEMENT_3D('',#481,#482,#483);
#392=CARTESIAN_POINT('',(0.06,-7.34788079488412E-018,0.0));
#393=CARTESIAN_POINT('',(0.06,-1.22464679914735E-017,0.05));
#394=CARTESIAN_POINT('',(0.06,-7.34788079488412E-018,0.0));
#395=VECTOR('',#484,1.0);
#396=CARTESIAN_POINT('',(3.67394039744206E-018,0.06,0.0));
#397=AXIS2_PLACEMENT_3D('',#485,#486,#487);
#398=CARTESIAN_POINT('',(-0.06,7.34788079488412E-018,0.0));
#399=AXIS2_PLACEMENT_3D('',#488,#489,#490);
#400=CARTESIAN_POINT('',(-0.06,7.34788079488412E-018,0.1));
#401=CARTESIAN_POINT('',(-0.06,7.34788079488412E-018,0.0));
#402=VECTOR('',#491,1.0);
#403=CARTESIAN_POINT('',(3.67394039744206E-018,0.06,0.1));
#404=AXIS2_PLACEMENT_3D('',#492,#493,#494);
#405=CARTESIAN_POINT('',(0.06,-1.22464679914735E-017,0.1));
#406=AXIS2_PLACEMENT_3D('',#495,#496,#497);
#407=CARTESIAN_POINT('',(0.06,0.0,0.075));
#408=VECTOR('',#498,1.0);
#409=CARTESIAN_POINT('',(0.06,-0.3,0.05));
#410=CARTESIAN_POINT('',(0.06,-0.3,0.01));
#411=CARTESIAN_POINT('',(0.06,-0.3,0.1));
#412=VECTOR('',#499,1.0);
#413=CARTESIAN_POINT('',(0.06,-0.3,0.1));
#414=CARTESIAN_POINT('',(0.06,-0.3,0.1));
#415=VECTOR('',#500,1.0);
#416=CARTESIAN_POINT('',(-0.04,-0.3,0.1));
#417=AXIS2_PLACEMENT_3D('',#501,#502,#503);
#418=CARTESIAN_POINT('',(-0.04,-0.3,0.01));
#419=CARTESIAN_POINT('',(-0.04,-0.3,0.1));
#420=VECTOR('',#504,1.0);
#421=AXIS2_PLACEMENT_3D('',#505,#506,#507);
#422=CARTESIAN_POINT('',(0.0396333149006317,-0.3,0.1));
#423=CARTESIAN_POINT('',(0.0396333149006317,-0.3,0.01));
#424=CARTESIAN_POINT('',(0.0396333149006317,-0.3,0.05));
#425=VECTOR('',#508,1.0);
#426=CARTESIAN_POINT('',(-0.0196333149006317,-0.3,0.1));
#427=AXIS2_PLACEMENT_3D('',#509,#510,#511);
#428=CARTESIAN_POINT('',(-0.0196333149006317,-0.3,0.01));
#429=CARTESIAN_POINT('',(-0.0196333149006317,-0.3,0.05));
#430=VECTOR('',#512,1.0);
#431=AXIS2_PLACEMENT_3D('',#513,#514,#515);
#432=CARTESIAN_POINT('',(0.011874,-0.329574,0.01));
#433=AXIS2_PLACEMENT_3D('',#516,#517,#518);
#434=AXIS2_PLACEMENT_3D('',#519,#520,#521);
#435=CARTESIAN_POINT('',(-0.0389350377974693,-0.289735396950673,0.01));
#436=AXIS2_PLACEMENT_3D('',#522,#523,#524);
#437=AXIS2_PLACEMENT_3D('',#525,#526,#527);
#438=CARTESIAN_POINT('',(0.011874,-0.329574,0.1));
#439=AXIS2_PLACEMENT_3D('',#528,#529,#530);
#440=AXIS2_PLACEMENT_3D('',#531,#532,#533);
#441=CARTESIAN_POINT('',(-0.0503384949676237,-0.0326502055796671,0.05));
#442=CARTESIAN_POINT('',(-0.00663301702188089,-0.135740098740701,0.05));
#443=CARTESIAN_POINT('',(-0.0503384949676237,-0.0326502055796671,0.05));
#444=VECTOR('',#534,1.0);
#445=CARTESIAN_POINT('',(-0.00663301702188089,-0.135740098740701,0.1));
#446=CARTESIAN_POINT('',(-0.00663301702188089,-0.135740098740701,0.1));
#447=VECTOR('',#535,1.0);
#448=CARTESIAN_POINT('',(-0.0503384949676237,-0.0326502055796671,0.1));
#449=CARTESIAN_POINT('',(-0.0503384949676237,-0.0326502055796671,0.1));
#450=VECTOR('',#536,1.0);
#451=CARTESIAN_POINT('',(-0.0503384949676237,-0.032650205579667,0.075));
#452=VECTOR('',#537,1.0);
#453=CARTESIAN_POINT('',(-0.0389350377974693,-0.289735396950673,0.05));
#454=CARTESIAN_POINT('',(-0.00663301702188089,-0.135740098740701,0.05));
#455=VECTOR('',#538,0.999999999999999);
#456=CARTESIAN_POINT('',(-0.0389350377974693,-0.289735396950673,0.1));
#457=CARTESIAN_POINT('',(-0.0389350377974693,-0.289735396950673,0.1));
#458=VECTOR('',#539,1.0);
#459=CARTESIAN_POINT('',(-0.00663301702188089,-0.135740098740701,0.1));
#460=VECTOR('',#540,1.0);
#461=AXIS2_PLACEMENT_3D('',#541,#542,#543);
#462=AXIS2_PLACEMENT_3D('',#544,#545,#546);
#463=CARTESIAN_POINT('',(0.06,0.0,0.05));
#464=VECTOR('',#547,1.0);
#465=CARTESIAN_POINT('',(0.06,0.0,0.1));
#466=VECTOR('',#548,1.0);
#467=AXIS2_PLACEMENT_3D('',#549,#550,#551);
#468=AXIS2_PLACEMENT_3D('',#552,#553,#554);
#469=AXIS2_PLACEMENT_3D('',#555,#556,#557);
#470=CARTESIAN_POINT('',(2.44929359829471E-018,0.04,0.1));
#471=AXIS2_PLACEMENT_3D('',#558,#559,#560);
#472=AXIS2_PLACEMENT_3D('',#561,#562,#563);
#473=CARTESIAN_POINT('',(2.44929359829471E-018,0.04,0.0));
#474=AXIS2_PLACEMENT_3D('',#564,#565,#566);
#475=AXIS2_PLACEMENT_3D('',#567,#568,#569);
#476=DIRECTION('',(-0.0,0.0,1.0));
#477=CARTESIAN_POINT('',(0.0,0.0,0.0));
#478=DIRECTION('',(0.0,0.0,1.0));
#479=DIRECTION('',(1.0,0.0,0.0));
#480=DIRECTION('',(-0.0,0.0,-1.0));
#481=CARTESIAN_POINT('',(0.0,0.0,0.1));
#482=DIRECTION('',(0.0,0.0,1.0));
#483=DIRECTION('',(1.0,0.0,0.0));
#484=DIRECTION('',(0.0,0.0,1.0));
#485=CARTESIAN_POINT('',(0.0,0.0,0.0));
#486=DIRECTION('',(0.0,0.0,1.0));
#487=DIRECTION('',(1.0,0.0,0.0));
#488=CARTESIAN_POINT('',(0.0,0.0,0.0));
#489=DIRECTION('',(0.0,0.0,1.0));
#490=DIRECTION('',(1.0,0.0,0.0));
#491=DIRECTION('',(-0.0,-0.0,-1.0));
#492=CARTESIAN_POINT('',(0.0,0.0,0.1));
#493=DIRECTION('',(0.0,0.0,-1.0));
#494=DIRECTION('',(1.0,0.0,0.0));
#495=CARTESIAN_POINT('',(0.0,0.0,0.1));
#496=DIRECTION('',(0.0,0.0,-1.0));
#497=DIRECTION('',(1.0,0.0,0.0));
#498=DIRECTION('',(0.0,0.0,1.0));
#499=DIRECTION('',(0.0,0.0,-1.0));
#500=DIRECTION('',(0.0,0.0,-1.0));
#501=CARTESIAN_POINT('',(0.01,-0.3,0.1));
#502=DIRECTION('',(0.0,0.0,1.0));
#503=DIRECTION('',(1.0,0.0,0.0));
#504=DIRECTION('',(-0.0,-0.0,1.0));
#505=CARTESIAN_POINT('',(0.00999999999999999,-0.3,0.01));
#506=DIRECTION('',(0.0,0.0,1.0));
#507=DIRECTION('',(1.0,0.0,0.0));
#508=DIRECTION('',(-0.0,-0.0,-1.0));
#509=CARTESIAN_POINT('',(0.01,-0.3,0.1));
#510=DIRECTION('',(0.0,0.0,-1.0));
#511=DIRECTION('',(1.0,0.0,0.0));
#512=DIRECTION('',(-0.0,0.0,1.0));
#513=CARTESIAN_POINT('',(0.00999999999999999,-0.3,0.01));
#514=DIRECTION('',(0.0,0.0,-1.0));
#515=DIRECTION('',(1.0,0.0,0.0));
#516=CARTESIAN_POINT('',(0.00999999999999999,-0.3,0.01));
#517=DIRECTION('',(0.0,0.0,-1.0));
#518=DIRECTION('',(1.0,0.0,0.0));
#519=CARTESIAN_POINT('',(0.00999999999999999,-0.3,0.01));
#520=DIRECTION('',(0.0,0.0,-1.0));
#521=DIRECTION('',(1.0,0.0,0.0));
#522=CARTESIAN_POINT('',(0.00999999999999999,-0.3,0.01));
#523=DIRECTION('',(0.0,0.0,1.0));
#524=DIRECTION('',(1.0,0.0,0.0));
#525=CARTESIAN_POINT('',(0.00999999999999999,-0.3,0.01));
#526=DIRECTION('',(0.0,0.0,1.0));
#527=DIRECTION('',(1.0,0.0,0.0));
#528=CARTESIAN_POINT('',(0.01,-0.3,0.1));
#529=DIRECTION('',(0.0,0.0,-1.0));
#530=DIRECTION('',(1.0,0.0,0.0));
#531=CARTESIAN_POINT('',(0.01,-0.3,0.1));
#532=DIRECTION('',(0.0,0.0,-1.0));
#533=DIRECTION('',(1.0,0.0,0.0));
#534=DIRECTION('',(0.390325590762418,-0.920676888596629,0.0));
#535=DIRECTION('',(0.0,0.0,-1.0));
#536=DIRECTION('',(0.390325590762418,-0.920676888596629,0.0));
#537=DIRECTION('',(0.0,0.0,1.0));
#538=DIRECTION('',(-0.205292060986534,-0.978700755949387,0.0));
#539=DIRECTION('',(0.0,0.0,-1.0));
#540=DIRECTION('',(-0.205292060986534,-0.978700755949387,0.0));
#541=CARTESIAN_POINT('',(0.01,-0.3,0.1));
#542=DIRECTION('',(0.0,0.0,1.0));
#543=DIRECTION('',(1.0,0.0,0.0));
#544=CARTESIAN_POINT('',(0.00999999999999999,-0.3,0.05));
#545=DIRECTION('',(0.0,0.0,1.0));
#546=DIRECTION('',(1.0,0.0,0.0));
#547=DIRECTION('',(6.93889390390723E-017,1.0,0.0));
#548=DIRECTION('',(-6.93889390390723E-017,-1.0,0.0));
#549=CARTESIAN_POINT('',(0.0,0.0,0.05));
#550=DIRECTION('',(0.0,0.0,-1.0));
#551=DIRECTION('',(1.0,0.0,0.0));
#552=CARTESIAN_POINT('',(0.0,0.0,0.1));
#553=DIRECTION('',(0.0,0.0,-1.0));
#554=DIRECTION('',(1.0,0.0,0.0));
#555=CARTESIAN_POINT('',(0.0,0.0,0.0));
#556=DIRECTION('',(0.0,0.0,1.0));
#557=DIRECTION('',(1.0,0.0,0.0));
#558=CARTESIAN_POINT('',(0.0,0.0,0.1));
#559=DIRECTION('',(0.0,0.0,1.0));
#560=DIRECTION('',(1.0,0.0,0.0));
#561=CARTESIAN_POINT('',(0.0,0.0,0.1));
#562=DIRECTION('',(0.0,0.0,1.0));
#563=DIRECTION('',(1.0,0.0,0.0));
#564=CARTESIAN_POINT('',(0.0,0.0,0.0));
#565=DIRECTION('',(0.0,0.0,1.0));
#566=DIRECTION('',(1.0,0.0,0.0));
#567=CARTESIAN_POINT('',(0.0,0.0,0.0));
#568=DIRECTION('',(0.0,0.0,1.0));
#569=DIRECTION('',(1.0,0.0,0.0));
ENDSEC;
END-ISO-10303-21;
