ISO-10303-21;
HEADER;
FILE_DESCRIPTION(('STEP AP214'),'1');
FILE_NAME('W1_WingBox.stp','2018-03-17T11:36:05',(' '),(' '),'Spatial InterOp 3D',' ',' ');
FILE_SCHEMA(('automotive_design'));
ENDSEC;
DATA;
#1=PRODUCT_DEFINITION_CONTEXT('',#25,'design');
#2=APPLICATION_PROTOCOL_DEFINITION('INTERNATIONAL STANDARD','automotive_design',1994,#25);
#3=PRODUCT_CATEGORY_RELATIONSHIP('NONE','NONE',#26,#27);
#4=SHAPE_DEFINITION_REPRESENTATION(#28,#29);
#5=PRODUCT_DEFINITION_CONTEXT('',#30,'design');
#6=APPLICATION_PROTOCOL_DEFINITION('INTERNATIONAL STANDARD','automotive_design',1994,#30);
#7=PRODUCT_CATEGORY_RELATIONSHIP('NONE','NONE',#31,#32);
#8=SHAPE_DEFINITION_REPRESENTATION(#33,#34);
#9=PRODUCT_DEFINITION_CONTEXT('',#35,'design');
#10=APPLICATION_PROTOCOL_DEFINITION('INTERNATIONAL STANDARD','automotive_design',1994,#35);
#11=PRODUCT_CATEGORY_RELATIONSHIP('NONE','NONE',#36,#37);
#12=SHAPE_DEFINITION_REPRESENTATION(#38,#39);
#13=PRODUCT_DEFINITION_CONTEXT('',#40,'design');
#14=APPLICATION_PROTOCOL_DEFINITION('INTERNATIONAL STANDARD','automotive_design',1994,#40);
#15=PRODUCT_CATEGORY_RELATIONSHIP('NONE','NONE',#41,#42);
#16=SHAPE_DEFINITION_REPRESENTATION(#43,#44);
#17=PRODUCT_DEFINITION_CONTEXT('',#45,'design');
#18=APPLICATION_PROTOCOL_DEFINITION('INTERNATIONAL STANDARD','automotive_design',1994,#45);
#19=PRODUCT_CATEGORY_RELATIONSHIP('NONE','NONE',#46,#47);
#20=SHAPE_DEFINITION_REPRESENTATION(#48,#49);
#21= (GEOMETRIC_REPRESENTATION_CONTEXT(3)GLOBAL_UNCERTAINTY_ASSIGNED_CONTEXT((#52))GLOBAL_UNIT_ASSIGNED_CONTEXT((#54,#55,#56))REPRESENTATION_CONTEXT('NONE','WORKSPACE'));
#25=APPLICATION_CONTEXT(' ');
#26=PRODUCT_CATEGORY('part','NONE');
#27=PRODUCT_RELATED_PRODUCT_CATEGORY('detail',' ',(#58));
#28=PRODUCT_DEFINITION_SHAPE('NONE','NONE',#59);
#29=MANIFOLD_SURFACE_SHAPE_REPRESENTATION('1',(#60,#61),#21);
#30=APPLICATION_CONTEXT(' ');
#31=PRODUCT_CATEGORY('part','NONE');
#32=PRODUCT_RELATED_PRODUCT_CATEGORY('detail',' ',(#62));
#33=PRODUCT_DEFINITION_SHAPE('NONE','NONE',#63);
#34=MANIFOLD_SURFACE_SHAPE_REPRESENTATION('2',(#64,#65),#21);
#35=APPLICATION_CONTEXT(' ');
#36=PRODUCT_CATEGORY('part','NONE');
#37=PRODUCT_RELATED_PRODUCT_CATEGORY('detail',' ',(#66));
#38=PRODUCT_DEFINITION_SHAPE('NONE','NONE',#67);
#39=MANIFOLD_SURFACE_SHAPE_REPRESENTATION('3',(#68,#69),#21);
#40=APPLICATION_CONTEXT(' ');
#41=PRODUCT_CATEGORY('part','NONE');
#42=PRODUCT_RELATED_PRODUCT_CATEGORY('detail',' ',(#70));
#43=PRODUCT_DEFINITION_SHAPE('NONE','NONE',#71);
#44=MANIFOLD_SURFACE_SHAPE_REPRESENTATION('4',(#72,#73),#21);
#45=APPLICATION_CONTEXT(' ');
#46=PRODUCT_CATEGORY('part','NONE');
#47=PRODUCT_RELATED_PRODUCT_CATEGORY('detail',' ',(#74));
#48=PRODUCT_DEFINITION_SHAPE('NONE','NONE',#75);
#49=MANIFOLD_SURFACE_SHAPE_REPRESENTATION('5',(#76,#77),#21);
#52=UNCERTAINTY_MEASURE_WITH_UNIT(LENGTH_MEASURE(1.0E-006),#54,'','');
#54= (CONVERSION_BASED_UNIT('MILLIMETRE',#80)LENGTH_UNIT()NAMED_UNIT(#83));
#55= (NAMED_UNIT(#85)PLANE_ANGLE_UNIT()SI_UNIT($,.RADIAN.));
#56= (NAMED_UNIT(#85)SOLID_ANGLE_UNIT()SI_UNIT($,.STERADIAN.));
#58=PRODUCT('1','1','PART-1-DESC',(#91));
#59=PRODUCT_DEFINITION('NONE','NONE',#92,#1);
#60=SHELL_BASED_SURFACE_MODEL('1',(#93));
#61=AXIS2_PLACEMENT_3D('',#94,#95,#96);
#62=PRODUCT('2','2','PART-2-DESC',(#97));
#63=PRODUCT_DEFINITION('NONE','NONE',#98,#5);
#64=SHELL_BASED_SURFACE_MODEL('2',(#99));
#65=AXIS2_PLACEMENT_3D('',#100,#101,#102);
#66=PRODUCT('3','3','PART-3-DESC',(#103));
#67=PRODUCT_DEFINITION('NONE','NONE',#104,#9);
#68=SHELL_BASED_SURFACE_MODEL('3',(#105));
#69=AXIS2_PLACEMENT_3D('',#106,#107,#108);
#70=PRODUCT('4','4','PART-4-DESC',(#109));
#71=PRODUCT_DEFINITION('NONE','NONE',#110,#13);
#72=SHELL_BASED_SURFACE_MODEL('4',(#111));
#73=AXIS2_PLACEMENT_3D('',#112,#113,#114);
#74=PRODUCT('5','5','PART-5-DESC',(#115));
#75=PRODUCT_DEFINITION('NONE','NONE',#116,#17);
#76=SHELL_BASED_SURFACE_MODEL('5',(#117));
#77=AXIS2_PLACEMENT_3D('',#118,#119,#120);
#80=LENGTH_MEASURE_WITH_UNIT(LENGTH_MEASURE(1.0),#121);
#83=DIMENSIONAL_EXPONENTS(1.0,0.0,0.0,0.0,0.0,0.0,0.0);
#85=DIMENSIONAL_EXPONENTS(0.0,0.0,0.0,0.0,0.0,0.0,0.0);
#91=PRODUCT_CONTEXT('',#25,'mechanical');
#92=PRODUCT_DEFINITION_FORMATION_WITH_SPECIFIED_SOURCE(' ','NONE',#58,.NOT_KNOWN.);
#93=CLOSED_SHELL('',(#122));
#94=CARTESIAN_POINT('',(0.0,0.0,0.0));
#95=DIRECTION('',(0.0,0.0,1.0));
#96=DIRECTION('',(1.0,0.0,0.0));
#97=PRODUCT_CONTEXT('',#30,'mechanical');
#98=PRODUCT_DEFINITION_FORMATION_WITH_SPECIFIED_SOURCE(' ','NONE',#62,.NOT_KNOWN.);
#99=CLOSED_SHELL('',(#123));
#100=CARTESIAN_POINT('',(0.0,0.0,0.0));
#101=DIRECTION('',(0.0,0.0,1.0));
#102=DIRECTION('',(1.0,0.0,0.0));
#103=PRODUCT_CONTEXT('',#35,'mechanical');
#104=PRODUCT_DEFINITION_FORMATION_WITH_SPECIFIED_SOURCE(' ','NONE',#66,.NOT_KNOWN.);
#105=CLOSED_SHELL('',(#124,#125,#126,#127,#128,#129));
#106=CARTESIAN_POINT('',(0.0,0.0,0.0));
#107=DIRECTION('',(0.0,0.0,1.0));
#108=DIRECTION('',(1.0,0.0,0.0));
#109=PRODUCT_CONTEXT('',#40,'mechanical');
#110=PRODUCT_DEFINITION_FORMATION_WITH_SPECIFIED_SOURCE(' ','NONE',#70,.NOT_KNOWN.);
#111=CLOSED_SHELL('',(#130,#131,#132,#133,#134,#135));
#112=CARTESIAN_POINT('',(0.0,0.0,0.0));
#113=DIRECTION('',(0.0,0.0,1.0));
#114=DIRECTION('',(1.0,0.0,0.0));
#115=PRODUCT_CONTEXT('',#45,'mechanical');
#116=PRODUCT_DEFINITION_FORMATION_WITH_SPECIFIED_SOURCE(' ','NONE',#74,.NOT_KNOWN.);
#117=CLOSED_SHELL('',(#136,#137,#138,#139,#140,#141));
#118=CARTESIAN_POINT('',(0.0,0.0,0.0));
#119=DIRECTION('',(0.0,0.0,1.0));
#120=DIRECTION('',(1.0,0.0,0.0));
#121= (NAMED_UNIT(#83)LENGTH_UNIT()SI_UNIT(.MILLI.,.METRE.));
#122=FACE_SURFACE('',(#143,#144),#145,.T.);
#123=FACE_SURFACE('',(#146,#147),#148,.T.);
#124=FACE_SURFACE('',(#149),#150,.T.);
#125=FACE_SURFACE('',(#151),#152,.T.);
#126=FACE_SURFACE('',(#153),#154,.T.);
#127=FACE_SURFACE('',(#155),#156,.T.);
#128=FACE_SURFACE('',(#157),#158,.T.);
#129=FACE_SURFACE('',(#159),#160,.T.);
#130=FACE_SURFACE('',(#161),#162,.T.);
#131=FACE_SURFACE('',(#163),#164,.T.);
#132=FACE_SURFACE('',(#165),#166,.T.);
#133=FACE_SURFACE('',(#167),#168,.T.);
#134=FACE_SURFACE('',(#169),#170,.T.);
#135=FACE_SURFACE('',(#171),#172,.T.);
#136=FACE_SURFACE('',(#173),#174,.T.);
#137=FACE_SURFACE('',(#175),#176,.T.);
#138=FACE_SURFACE('',(#177),#178,.T.);
#139=FACE_SURFACE('',(#179),#180,.T.);
#140=FACE_SURFACE('',(#181),#182,.T.);
#141=FACE_SURFACE('',(#183),#184,.T.);
#143=FACE_BOUND('',#185,.T.);
#144=FACE_BOUND('',#186,.T.);
#145=PLANE('',#187);
#146=FACE_BOUND('',#188,.T.);
#147=FACE_BOUND('',#189,.T.);
#148=PLANE('',#190);
#149=FACE_BOUND('',#191,.T.);
#150=CYLINDRICAL_SURFACE('',#192,0.0200000000565563);
#151=FACE_BOUND('',#193,.T.);
#152=PLANE('',#194);
#153=FACE_BOUND('',#195,.T.);
#154=PLANE('',#196);
#155=FACE_BOUND('',#197,.T.);
#156=SURFACE_OF_LINEAR_EXTRUSION('',#198,#199);
#157=FACE_BOUND('',#200,.T.);
#158=CYLINDRICAL_SURFACE('',#201,0.0200000000565563);
#159=FACE_BOUND('',#202,.T.);
#160=SURFACE_OF_LINEAR_EXTRUSION('',#203,#204);
#161=FACE_BOUND('',#205,.T.);
#162=CYLINDRICAL_SURFACE('',#206,0.0200000000565563);
#163=FACE_BOUND('',#207,.T.);
#164=CYLINDRICAL_SURFACE('',#208,0.0200000000565563);
#165=FACE_BOUND('',#209,.T.);
#166=PLANE('',#210);
#167=FACE_BOUND('',#211,.T.);
#168=SURFACE_OF_LINEAR_EXTRUSION('',#212,#213);
#169=FACE_BOUND('',#214,.T.);
#170=PLANE('',#215);
#171=FACE_BOUND('',#216,.T.);
#172=SURFACE_OF_LINEAR_EXTRUSION('',#217,#218);
#173=FACE_BOUND('',#219,.T.);
#174=CYLINDRICAL_SURFACE('',#220,0.0200000000565563);
#175=FACE_BOUND('',#221,.T.);
#176=CYLINDRICAL_SURFACE('',#222,0.0200000000565563);
#177=FACE_BOUND('',#223,.T.);
#178=PLANE('',#224);
#179=FACE_BOUND('',#225,.T.);
#180=SURFACE_OF_LINEAR_EXTRUSION('',#226,#227);
#181=FACE_BOUND('',#228,.T.);
#182=SURFACE_OF_LINEAR_EXTRUSION('',#229,#230);
#183=FACE_BOUND('',#231,.T.);
#184=PLANE('',#232);
#185=EDGE_LOOP('',(#233,#234,#235,#236,#237));
#186=EDGE_LOOP('',(#238,#239));
#187=AXIS2_PLACEMENT_3D('',#240,#241,#242);
#188=EDGE_LOOP('',(#243,#244,#245,#246,#247));
#189=EDGE_LOOP('',(#248,#249));
#190=AXIS2_PLACEMENT_3D('',#250,#251,#252);
#191=EDGE_LOOP('',(#253,#254,#255,#256));
#192=AXIS2_PLACEMENT_3D('',#257,#258,#259);
#193=EDGE_LOOP('',(#260,#261,#262,#263));
#194=AXIS2_PLACEMENT_3D('',#264,#265,#266);
#195=EDGE_LOOP('',(#267,#268,#269));
#196=AXIS2_PLACEMENT_3D('',#270,#271,#272);
#197=EDGE_LOOP('',(#273,#274,#275,#276,#277,#278));
#198=B_SPLINE_CURVE_WITH_KNOTS('',3,(#279,#280,#281,#282,#283),.UNSPECIFIED.,.F.,.F.,(4,1,4),(0.0,0.144028776347926,0.299752891371901),.UNSPECIFIED.);
#199=VECTOR('',#284,1.0);
#200=EDGE_LOOP('',(#285,#286,#287,#288));
#201=AXIS2_PLACEMENT_3D('',#289,#290,#291);
#202=EDGE_LOOP('',(#292,#293,#294,#295,#296,#297));
#203=B_SPLINE_CURVE_WITH_KNOTS('',3,(#298,#299,#300,#301,#302,#303),.UNSPECIFIED.,.F.,.F.,(4,1,1,4),(-0.380007916089636,-0.221894033081217,-0.0768078517957478,-0.0),.UNSPECIFIED.);
#204=VECTOR('',#304,1.0);
#205=EDGE_LOOP('',(#305,#306,#307,#308));
#206=AXIS2_PLACEMENT_3D('',#309,#310,#311);
#207=EDGE_LOOP('',(#312,#313,#314,#315));
#208=AXIS2_PLACEMENT_3D('',#316,#317,#318);
#209=EDGE_LOOP('',(#319,#320,#321));
#210=AXIS2_PLACEMENT_3D('',#322,#323,#324);
#211=EDGE_LOOP('',(#325,#326,#327,#328,#329,#330));
#212=B_SPLINE_CURVE_WITH_KNOTS('',3,(#331,#332,#333,#334,#335,#336),.UNSPECIFIED.,.F.,.F.,(4,1,1,4),(-0.380007916089636,-0.221894033081217,-0.0768078517957478,-0.0),.UNSPECIFIED.);
#213=VECTOR('',#337,1.0);
#214=EDGE_LOOP('',(#338,#339,#340,#341));
#215=AXIS2_PLACEMENT_3D('',#342,#343,#344);
#216=EDGE_LOOP('',(#345,#346,#347,#348,#349,#350));
#217=B_SPLINE_CURVE_WITH_KNOTS('',3,(#351,#352,#353,#354,#355),.UNSPECIFIED.,.F.,.F.,(4,1,4),(0.0,0.144028776347926,0.299752891371901),.UNSPECIFIED.);
#218=VECTOR('',#356,1.0);
#219=EDGE_LOOP('',(#357,#358,#359,#360));
#220=AXIS2_PLACEMENT_3D('',#361,#362,#363);
#221=EDGE_LOOP('',(#364,#365,#366,#367));
#222=AXIS2_PLACEMENT_3D('',#368,#369,#370);
#223=EDGE_LOOP('',(#371,#372,#373,#374));
#224=AXIS2_PLACEMENT_3D('',#375,#376,#377);
#225=EDGE_LOOP('',(#378,#379,#380,#381));
#226=B_SPLINE_CURVE_WITH_KNOTS('',3,(#382,#383,#384,#385,#386,#387),.UNSPECIFIED.,.F.,.F.,(4,1,1,4),(-0.380007916089636,-0.221894033081217,-0.0768078517957478,-0.0),.UNSPECIFIED.);
#227=VECTOR('',#388,1.0);
#228=EDGE_LOOP('',(#389,#390,#391,#392));
#229=B_SPLINE_CURVE_WITH_KNOTS('',3,(#393,#394,#395,#396,#397),.UNSPECIFIED.,.F.,.F.,(4,1,4),(0.0,0.144028776347926,0.299752891371901),.UNSPECIFIED.);
#230=VECTOR('',#398,1.0);
#231=EDGE_LOOP('',(#399,#400,#401,#402));
#232=AXIS2_PLACEMENT_3D('',#403,#404,#405);
#233=ORIENTED_EDGE('',*,*,#406,.T.);
#234=ORIENTED_EDGE('',*,*,#407,.T.);
#235=ORIENTED_EDGE('',*,*,#408,.T.);
#236=ORIENTED_EDGE('',*,*,#409,.T.);
#237=ORIENTED_EDGE('',*,*,#410,.T.);
#238=ORIENTED_EDGE('',*,*,#411,.T.);
#239=ORIENTED_EDGE('',*,*,#412,.T.);
#240=CARTESIAN_POINT('',(0.00375000000000003,0.5,0.03));
#241=DIRECTION('',(0.0,0.0,-1.0));
#242=DIRECTION('',(1.0,0.0,0.0));
#243=ORIENTED_EDGE('',*,*,#413,.T.);
#244=ORIENTED_EDGE('',*,*,#414,.T.);
#245=ORIENTED_EDGE('',*,*,#415,.T.);
#246=ORIENTED_EDGE('',*,*,#416,.T.);
#247=ORIENTED_EDGE('',*,*,#417,.T.);
#248=ORIENTED_EDGE('',*,*,#418,.T.);
#249=ORIENTED_EDGE('',*,*,#419,.T.);
#250=CARTESIAN_POINT('',(6.98499591500479E-012,0.5,0.27));
#251=DIRECTION('',(0.0,0.0,-1.0));
#252=DIRECTION('',(1.0,0.0,0.0));
#253=ORIENTED_EDGE('',*,*,#420,.T.);
#254=ORIENTED_EDGE('',*,*,#421,.T.);
#255=ORIENTED_EDGE('',*,*,#422,.T.);
#256=ORIENTED_EDGE('',*,*,#423,.T.);
#257=CARTESIAN_POINT('',(-0.160000000219006,-5.65472024494649E-011,0.0));
#258=DIRECTION('',(0.0,0.0,1.0));
#259=DIRECTION('',(1.0,0.0,0.0));
#260=ORIENTED_EDGE('',*,*,#424,.T.);
#261=ORIENTED_EDGE('',*,*,#425,.T.);
#262=ORIENTED_EDGE('',*,*,#426,.T.);
#263=ORIENTED_EDGE('',*,*,#427,.T.);
#264=CARTESIAN_POINT('',(-0.133119843199896,-0.0231227788426507,0.0));
#265=DIRECTION('',(-0.110870742721235,-0.993834834571843,0.0));
#266=DIRECTION('',(0.993834834571843,-0.110870742721235,0.0));
#267=ORIENTED_EDGE('',*,*,#428,.T.);
#268=ORIENTED_EDGE('',*,*,#429,.T.);
#269=ORIENTED_EDGE('',*,*,#430,.T.);
#270=CARTESIAN_POINT('',(6.98499591500479E-012,0.5,0.27));
#271=DIRECTION('',(0.0,0.0,-1.0));
#272=DIRECTION('',(1.0,0.0,0.0));
#273=ORIENTED_EDGE('',*,*,#431,.T.);
#274=ORIENTED_EDGE('',*,*,#432,.T.);
#275=ORIENTED_EDGE('',*,*,#433,.T.);
#276=ORIENTED_EDGE('',*,*,#434,.T.);
#277=ORIENTED_EDGE('',*,*,#435,.T.);
#278=ORIENTED_EDGE('',*,*,#436,.T.);
#279=CARTESIAN_POINT('',(-0.104022271319991,-0.0263688608811208,0.0));
#280=CARTESIAN_POINT('',(-0.0559617350488463,-0.0269139662752433,0.0));
#281=CARTESIAN_POINT('',(0.0440619204556541,-0.0280484403861384,0.0));
#282=CARTESIAN_POINT('',(0.143395421655967,-0.0161706241308075,0.0));
#283=CARTESIAN_POINT('',(0.195,-0.01,0.0));
#284=DIRECTION('',(0.0,0.0,1.0));
#285=ORIENTED_EDGE('',*,*,#437,.T.);
#286=ORIENTED_EDGE('',*,*,#438,.T.);
#287=ORIENTED_EDGE('',*,*,#439,.T.);
#288=ORIENTED_EDGE('',*,*,#440,.T.);
#289=CARTESIAN_POINT('',(-0.160000000219006,-5.65472024494649E-011,0.0));
#290=DIRECTION('',(0.0,0.0,1.0));
#291=DIRECTION('',(1.0,0.0,0.0));
#292=ORIENTED_EDGE('',*,*,#441,.T.);
#293=ORIENTED_EDGE('',*,*,#442,.T.);
#294=ORIENTED_EDGE('',*,*,#443,.T.);
#295=ORIENTED_EDGE('',*,*,#444,.T.);
#296=ORIENTED_EDGE('',*,*,#445,.T.);
#297=ORIENTED_EDGE('',*,*,#446,.T.);
#298=CARTESIAN_POINT('',(0.195,-0.01,0.0));
#299=CARTESIAN_POINT('',(0.143124220808784,0.00511686364172977,0.0));
#300=CARTESIAN_POINT('',(0.0450458326641087,0.0369102454093378,0.0));
#301=CARTESIAN_POINT('',(-0.0817110886960306,0.0386142595930374,0.0));
#302=CARTESIAN_POINT('',(-0.154031800606375,0.0279151122512486,0.0));
#303=CARTESIAN_POINT('',(-0.171025609621681,0.0166863997817016,0.0));
#304=DIRECTION('',(0.0,0.0,1.0));
#305=ORIENTED_EDGE('',*,*,#447,.T.);
#306=ORIENTED_EDGE('',*,*,#448,.T.);
#307=ORIENTED_EDGE('',*,*,#449,.T.);
#308=ORIENTED_EDGE('',*,*,#450,.T.);
#309=CARTESIAN_POINT('',(-0.160000000219006,-5.65472024494649E-011,0.0));
#310=DIRECTION('',(0.0,0.0,1.0));
#311=DIRECTION('',(1.0,0.0,0.0));
#312=ORIENTED_EDGE('',*,*,#451,.T.);
#313=ORIENTED_EDGE('',*,*,#452,.T.);
#314=ORIENTED_EDGE('',*,*,#453,.T.);
#315=ORIENTED_EDGE('',*,*,#454,.T.);
#316=CARTESIAN_POINT('',(-0.160000000219006,-5.65472024494649E-011,0.0));
#317=DIRECTION('',(0.0,0.0,1.0));
#318=DIRECTION('',(1.0,0.0,0.0));
#319=ORIENTED_EDGE('',*,*,#455,.T.);
#320=ORIENTED_EDGE('',*,*,#456,.T.);
#321=ORIENTED_EDGE('',*,*,#457,.T.);
#322=CARTESIAN_POINT('',(0.00375000000000003,0.5,0.03));
#323=DIRECTION('',(0.0,0.0,-1.0));
#324=DIRECTION('',(1.0,0.0,0.0));
#325=ORIENTED_EDGE('',*,*,#458,.T.);
#326=ORIENTED_EDGE('',*,*,#459,.T.);
#327=ORIENTED_EDGE('',*,*,#460,.T.);
#328=ORIENTED_EDGE('',*,*,#461,.T.);
#329=ORIENTED_EDGE('',*,*,#462,.T.);
#330=ORIENTED_EDGE('',*,*,#463,.T.);
#331=CARTESIAN_POINT('',(0.195,-0.01,0.0));
#332=CARTESIAN_POINT('',(0.143124220808784,0.00511686364172977,0.0));
#333=CARTESIAN_POINT('',(0.0450458326641087,0.0369102454093378,0.0));
#334=CARTESIAN_POINT('',(-0.0817110886960306,0.0386142595930374,0.0));
#335=CARTESIAN_POINT('',(-0.154031800606375,0.0279151122512486,0.0));
#336=CARTESIAN_POINT('',(-0.171025609621681,0.0166863997817016,0.0));
#337=DIRECTION('',(0.0,0.0,1.0));
#338=ORIENTED_EDGE('',*,*,#464,.T.);
#339=ORIENTED_EDGE('',*,*,#465,.T.);
#340=ORIENTED_EDGE('',*,*,#466,.T.);
#341=ORIENTED_EDGE('',*,*,#467,.T.);
#342=CARTESIAN_POINT('',(-0.133119843199896,-0.0231227788426507,0.0));
#343=DIRECTION('',(-0.110870742721235,-0.993834834571843,0.0));
#344=DIRECTION('',(0.993834834571843,-0.110870742721235,0.0));
#345=ORIENTED_EDGE('',*,*,#468,.T.);
#346=ORIENTED_EDGE('',*,*,#469,.T.);
#347=ORIENTED_EDGE('',*,*,#470,.T.);
#348=ORIENTED_EDGE('',*,*,#471,.T.);
#349=ORIENTED_EDGE('',*,*,#472,.T.);
#350=ORIENTED_EDGE('',*,*,#473,.T.);
#351=CARTESIAN_POINT('',(-0.104022271319991,-0.0263688608811208,0.0));
#352=CARTESIAN_POINT('',(-0.0559617350488463,-0.0269139662752433,0.0));
#353=CARTESIAN_POINT('',(0.0440619204556541,-0.0280484403861384,0.0));
#354=CARTESIAN_POINT('',(0.143395421655967,-0.0161706241308075,0.0));
#355=CARTESIAN_POINT('',(0.195,-0.01,0.0));
#356=DIRECTION('',(0.0,0.0,1.0));
#357=ORIENTED_EDGE('',*,*,#474,.T.);
#358=ORIENTED_EDGE('',*,*,#475,.T.);
#359=ORIENTED_EDGE('',*,*,#476,.T.);
#360=ORIENTED_EDGE('',*,*,#477,.T.);
#361=CARTESIAN_POINT('',(-0.160000000219006,-5.65472024494649E-011,0.0));
#362=DIRECTION('',(0.0,0.0,1.0));
#363=DIRECTION('',(1.0,0.0,0.0));
#364=ORIENTED_EDGE('',*,*,#478,.T.);
#365=ORIENTED_EDGE('',*,*,#479,.T.);
#366=ORIENTED_EDGE('',*,*,#480,.T.);
#367=ORIENTED_EDGE('',*,*,#481,.T.);
#368=CARTESIAN_POINT('',(-0.160000000219006,-5.65472024494649E-011,0.0));
#369=DIRECTION('',(0.0,0.0,1.0));
#370=DIRECTION('',(1.0,0.0,0.0));
#371=ORIENTED_EDGE('',*,*,#482,.T.);
#372=ORIENTED_EDGE('',*,*,#483,.T.);
#373=ORIENTED_EDGE('',*,*,#484,.T.);
#374=ORIENTED_EDGE('',*,*,#485,.T.);
#375=CARTESIAN_POINT('',(-0.133119843199896,-0.0231227788426507,0.0));
#376=DIRECTION('',(-0.110870742721235,-0.993834834571843,0.0));
#377=DIRECTION('',(0.993834834571843,-0.110870742721235,0.0));
#378=ORIENTED_EDGE('',*,*,#486,.T.);
#379=ORIENTED_EDGE('',*,*,#487,.T.);
#380=ORIENTED_EDGE('',*,*,#488,.T.);
#381=ORIENTED_EDGE('',*,*,#489,.T.);
#382=CARTESIAN_POINT('',(0.195,-0.01,0.0));
#383=CARTESIAN_POINT('',(0.143124220808784,0.00511686364172977,0.0));
#384=CARTESIAN_POINT('',(0.0450458326641087,0.0369102454093378,0.0));
#385=CARTESIAN_POINT('',(-0.0817110886960306,0.0386142595930374,0.0));
#386=CARTESIAN_POINT('',(-0.154031800606375,0.0279151122512486,0.0));
#387=CARTESIAN_POINT('',(-0.171025609621681,0.0166863997817016,0.0));
#388=DIRECTION('',(0.0,0.0,1.0));
#389=ORIENTED_EDGE('',*,*,#490,.T.);
#390=ORIENTED_EDGE('',*,*,#491,.T.);
#391=ORIENTED_EDGE('',*,*,#492,.T.);
#392=ORIENTED_EDGE('',*,*,#493,.T.);
#393=CARTESIAN_POINT('',(-0.104022271319991,-0.0263688608811208,0.0));
#394=CARTESIAN_POINT('',(-0.0559617350488463,-0.0269139662752433,0.0));
#395=CARTESIAN_POINT('',(0.0440619204556541,-0.0280484403861384,0.0));
#396=CARTESIAN_POINT('',(0.143395421655967,-0.0161706241308075,0.0));
#397=CARTESIAN_POINT('',(0.195,-0.01,0.0));
#398=DIRECTION('',(0.0,0.0,1.0));
#399=ORIENTED_EDGE('',*,*,#494,.T.);
#400=ORIENTED_EDGE('',*,*,#495,.T.);
#401=ORIENTED_EDGE('',*,*,#496,.T.);
#402=ORIENTED_EDGE('',*,*,#497,.T.);
#403=CARTESIAN_POINT('',(0.12,0.5,0.142500000009313));
#404=DIRECTION('',(1.0,0.0,-0.0));
#405=DIRECTION('',(0.0,0.0,1.0));
#406=EDGE_CURVE('',#498,#499,#500,.F.);
#407=EDGE_CURVE('',#499,#501,#502,.T.);
#408=EDGE_CURVE('',#501,#503,#504,.T.);
#409=EDGE_CURVE('',#503,#505,#506,.T.);
#410=EDGE_CURVE('',#505,#498,#507,.T.);
#411=EDGE_CURVE('',#508,#509,#510,.T.);
#412=EDGE_CURVE('',#509,#508,#511,.T.);
#413=EDGE_CURVE('',#512,#513,#514,.F.);
#414=EDGE_CURVE('',#513,#515,#516,.T.);
#415=EDGE_CURVE('',#515,#517,#518,.T.);
#416=EDGE_CURVE('',#517,#519,#520,.T.);
#417=EDGE_CURVE('',#519,#512,#521,.T.);
#418=EDGE_CURVE('',#522,#523,#524,.T.);
#419=EDGE_CURVE('',#523,#522,#525,.T.);
#420=EDGE_CURVE('',#526,#527,#528,.F.);
#421=EDGE_CURVE('',#527,#529,#530,.T.);
#422=EDGE_CURVE('',#529,#531,#532,.F.);
#423=EDGE_CURVE('',#531,#526,#533,.F.);
#424=EDGE_CURVE('',#534,#535,#536,.F.);
#425=EDGE_CURVE('',#535,#537,#538,.T.);
#426=EDGE_CURVE('',#537,#539,#540,.T.);
#427=EDGE_CURVE('',#539,#534,#541,.F.);
#428=EDGE_CURVE('',#542,#543,#544,.T.);
#429=EDGE_CURVE('',#543,#545,#546,.T.);
#430=EDGE_CURVE('',#545,#542,#547,.T.);
#431=EDGE_CURVE('',#548,#549,#550,.T.);
#432=EDGE_CURVE('',#549,#551,#552,.T.);
#433=EDGE_CURVE('',#551,#553,#554,.F.);
#434=EDGE_CURVE('',#553,#555,#556,.F.);
#435=EDGE_CURVE('',#555,#557,#558,.F.);
#436=EDGE_CURVE('',#557,#548,#559,.T.);
#437=EDGE_CURVE('',#560,#561,#562,.T.);
#438=EDGE_CURVE('',#561,#563,#564,.F.);
#439=EDGE_CURVE('',#563,#565,#566,.T.);
#440=EDGE_CURVE('',#565,#560,#567,.T.);
#441=EDGE_CURVE('',#568,#569,#570,.F.);
#442=EDGE_CURVE('',#569,#571,#572,.F.);
#443=EDGE_CURVE('',#571,#573,#574,.T.);
#444=EDGE_CURVE('',#573,#575,#576,.T.);
#445=EDGE_CURVE('',#575,#577,#578,.T.);
#446=EDGE_CURVE('',#577,#568,#579,.F.);
#447=EDGE_CURVE('',#580,#581,#582,.F.);
#448=EDGE_CURVE('',#581,#583,#584,.T.);
#449=EDGE_CURVE('',#583,#585,#586,.F.);
#450=EDGE_CURVE('',#585,#580,#587,.T.);
#451=EDGE_CURVE('',#588,#589,#590,.T.);
#452=EDGE_CURVE('',#589,#591,#592,.T.);
#453=EDGE_CURVE('',#591,#593,#594,.T.);
#454=EDGE_CURVE('',#593,#588,#595,.T.);
#455=EDGE_CURVE('',#596,#597,#598,.T.);
#456=EDGE_CURVE('',#597,#599,#600,.T.);
#457=EDGE_CURVE('',#599,#596,#601,.T.);
#458=EDGE_CURVE('',#602,#603,#604,.F.);
#459=EDGE_CURVE('',#603,#605,#606,.F.);
#460=EDGE_CURVE('',#605,#607,#608,.T.);
#461=EDGE_CURVE('',#607,#609,#610,.T.);
#462=EDGE_CURVE('',#609,#611,#612,.T.);
#463=EDGE_CURVE('',#611,#602,#613,.F.);
#464=EDGE_CURVE('',#614,#615,#616,.T.);
#465=EDGE_CURVE('',#615,#617,#618,.F.);
#466=EDGE_CURVE('',#617,#619,#620,.T.);
#467=EDGE_CURVE('',#619,#614,#621,.T.);
#468=EDGE_CURVE('',#622,#623,#624,.T.);
#469=EDGE_CURVE('',#623,#625,#626,.T.);
#470=EDGE_CURVE('',#625,#627,#628,.F.);
#471=EDGE_CURVE('',#627,#629,#630,.T.);
#472=EDGE_CURVE('',#629,#631,#632,.T.);
#473=EDGE_CURVE('',#631,#622,#633,.T.);
#474=EDGE_CURVE('',#634,#635,#636,.F.);
#475=EDGE_CURVE('',#635,#637,#638,.T.);
#476=EDGE_CURVE('',#637,#639,#640,.F.);
#477=EDGE_CURVE('',#639,#634,#641,.F.);
#478=EDGE_CURVE('',#642,#643,#644,.T.);
#479=EDGE_CURVE('',#643,#645,#646,.F.);
#480=EDGE_CURVE('',#645,#647,#648,.T.);
#481=EDGE_CURVE('',#647,#642,#649,.T.);
#482=EDGE_CURVE('',#650,#651,#652,.F.);
#483=EDGE_CURVE('',#651,#653,#654,.T.);
#484=EDGE_CURVE('',#653,#655,#656,.T.);
#485=EDGE_CURVE('',#655,#650,#657,.F.);
#486=EDGE_CURVE('',#658,#659,#660,.F.);
#487=EDGE_CURVE('',#659,#661,#662,.F.);
#488=EDGE_CURVE('',#661,#663,#664,.T.);
#489=EDGE_CURVE('',#663,#658,#665,.T.);
#490=EDGE_CURVE('',#666,#667,#668,.F.);
#491=EDGE_CURVE('',#667,#669,#670,.T.);
#492=EDGE_CURVE('',#669,#671,#672,.F.);
#493=EDGE_CURVE('',#671,#666,#673,.F.);
#494=EDGE_CURVE('',#674,#675,#676,.F.);
#495=EDGE_CURVE('',#675,#677,#678,.T.);
#496=EDGE_CURVE('',#677,#679,#680,.T.);
#497=EDGE_CURVE('',#679,#674,#681,.T.);
#498=VERTEX_POINT('',#682);
#499=VERTEX_POINT('',#683);
#500=LINE('',#684,#685);
#501=VERTEX_POINT('',#686);
#502=B_SPLINE_CURVE_WITH_KNOTS('',3,(#687,#688,#689,#690,#691),.UNSPECIFIED.,.F.,.F.,(4,1,4),(-0.299752891371901,-0.144028776347926,-0.0),.UNSPECIFIED.);
#503=VERTEX_POINT('',#692);
#504=LINE('',#693,#694);
#505=VERTEX_POINT('',#695);
#506=CIRCLE('',#696,0.0200000000565563);
#507=B_SPLINE_CURVE_WITH_KNOTS('',3,(#697,#698,#699,#700,#701,#702),.UNSPECIFIED.,.F.,.F.,(4,1,1,4),(0.0,0.0768078517957478,0.221894033081217,0.380007916089636),.UNSPECIFIED.);
#508=VERTEX_POINT('',#703);
#509=VERTEX_POINT('',#704);
#510=CIRCLE('',#705,0.015);
#511=CIRCLE('',#706,0.015);
#512=VERTEX_POINT('',#707);
#513=VERTEX_POINT('',#708);
#514=LINE('',#709,#710);
#515=VERTEX_POINT('',#711);
#516=B_SPLINE_CURVE_WITH_KNOTS('',3,(#712,#713,#714,#715,#716),.UNSPECIFIED.,.F.,.F.,(4,1,4),(-0.299752891371901,-0.144028776347926,-0.0),.UNSPECIFIED.);
#517=VERTEX_POINT('',#717);
#518=LINE('',#718,#719);
#519=VERTEX_POINT('',#720);
#520=CIRCLE('',#721,0.0200000000565563);
#521=B_SPLINE_CURVE_WITH_KNOTS('',3,(#722,#723,#724,#725,#726,#727),.UNSPECIFIED.,.F.,.F.,(4,1,1,4),(0.0,0.0768078517957478,0.221894033081217,0.380007916089636),.UNSPECIFIED.);
#522=VERTEX_POINT('',#728);
#523=VERTEX_POINT('',#729);
#524=CIRCLE('',#730,0.015);
#525=CIRCLE('',#731,0.015);
#526=VERTEX_POINT('',#732);
#527=VERTEX_POINT('',#733);
#528=LINE('',#734,#735);
#529=VERTEX_POINT('',#736);
#530=CIRCLE('',#737,0.0200000000565563);
#531=VERTEX_POINT('',#738);
#532=LINE('',#739,#740);
#533=CIRCLE('',#741,0.0200000000565563);
#534=VERTEX_POINT('',#742);
#535=VERTEX_POINT('',#743);
#536=LINE('',#744,#745);
#537=VERTEX_POINT('',#746);
#538=LINE('',#747,#748);
#539=VERTEX_POINT('',#749);
#540=LINE('',#750,#751);
#541=LINE('',#752,#753);
#542=VERTEX_POINT('',#754);
#543=VERTEX_POINT('',#755);
#544=LINE('',#756,#757);
#545=VERTEX_POINT('',#758);
#546=B_SPLINE_CURVE_WITH_KNOTS('',3,(#759,#760,#761,#762,#763,#764),.UNSPECIFIED.,.F.,.F.,(4,1,1,4),(0.0,0.0768078517957478,0.221894033081217,0.380007916089636),.UNSPECIFIED.);
#547=B_SPLINE_CURVE_WITH_KNOTS('',3,(#765,#766,#767,#768,#769),.UNSPECIFIED.,.F.,.F.,(4,1,4),(-0.299752891371901,-0.144028776347926,-0.0),.UNSPECIFIED.);
#548=VERTEX_POINT('',#770);
#549=VERTEX_POINT('',#771);
#550=B_SPLINE_CURVE_WITH_KNOTS('',3,(#772,#773,#774,#775,#776),.UNSPECIFIED.,.F.,.F.,(4,1,4),(-0.299752891371901,-0.144028776347926,-0.0),.UNSPECIFIED.);
#551=VERTEX_POINT('',#777);
#552=B_SPLINE_CURVE_WITH_KNOTS('',3,(#778,#779,#780,#781,#782),.UNSPECIFIED.,.F.,.F.,(4,1,4),(-0.299752891371901,-0.144028776347926,-0.0),.UNSPECIFIED.);
#553=VERTEX_POINT('',#783);
#554=LINE('',#784,#785);
#555=VERTEX_POINT('',#786);
#556=B_SPLINE_CURVE_WITH_KNOTS('',3,(#787,#788,#789,#790,#791),.UNSPECIFIED.,.F.,.F.,(4,1,4),(-0.299752891371901,-0.144028776347926,-0.0),.UNSPECIFIED.);
#557=VERTEX_POINT('',#792);
#558=B_SPLINE_CURVE_WITH_KNOTS('',3,(#793,#794,#795,#796,#797),.UNSPECIFIED.,.F.,.F.,(4,1,4),(-0.299752891371901,-0.144028776347926,-0.0),.UNSPECIFIED.);
#559=LINE('',#798,#799);
#560=VERTEX_POINT('',#800);
#561=VERTEX_POINT('',#801);
#562=LINE('',#802,#803);
#563=VERTEX_POINT('',#804);
#564=CIRCLE('',#805,0.0200000000565563);
#565=VERTEX_POINT('',#806);
#566=LINE('',#807,#808);
#567=CIRCLE('',#809,0.0200000000565563);
#568=VERTEX_POINT('',#810);
#569=VERTEX_POINT('',#811);
#570=B_SPLINE_CURVE_WITH_KNOTS('',3,(#812,#813,#814,#815,#816,#817),.UNSPECIFIED.,.F.,.F.,(4,1,1,4),(0.0,0.0768078517957478,0.221894033081217,0.380007916089636),.UNSPECIFIED.);
#571=VERTEX_POINT('',#818);
#572=B_SPLINE_CURVE_WITH_KNOTS('',3,(#819,#820,#821,#822,#823,#824),.UNSPECIFIED.,.F.,.F.,(4,1,1,4),(0.0,0.0768078517957478,0.221894033081217,0.380007916089636),.UNSPECIFIED.);
#573=VERTEX_POINT('',#825);
#574=LINE('',#826,#827);
#575=VERTEX_POINT('',#828);
#576=B_SPLINE_CURVE_WITH_KNOTS('',3,(#829,#830,#831,#832,#833,#834),.UNSPECIFIED.,.F.,.F.,(4,1,1,4),(0.0,0.0768078517957478,0.221894033081217,0.380007916089636),.UNSPECIFIED.);
#577=VERTEX_POINT('',#835);
#578=B_SPLINE_CURVE_WITH_KNOTS('',3,(#836,#837,#838,#839,#840,#841),.UNSPECIFIED.,.F.,.F.,(4,1,1,4),(0.0,0.0768078517957478,0.221894033081217,0.380007916089636),.UNSPECIFIED.);
#579=LINE('',#842,#843);
#580=VERTEX_POINT('',#844);
#581=VERTEX_POINT('',#845);
#582=LINE('',#846,#847);
#583=VERTEX_POINT('',#848);
#584=CIRCLE('',#849,0.0200000000565563);
#585=VERTEX_POINT('',#850);
#586=LINE('',#851,#852);
#587=CIRCLE('',#853,0.0200000000565563);
#588=VERTEX_POINT('',#854);
#589=VERTEX_POINT('',#855);
#590=LINE('',#856,#857);
#591=VERTEX_POINT('',#858);
#592=CIRCLE('',#859,0.0200000000565563);
#593=VERTEX_POINT('',#860);
#594=LINE('',#861,#862);
#595=CIRCLE('',#863,0.0200000000565563);
#596=VERTEX_POINT('',#864);
#597=VERTEX_POINT('',#865);
#598=LINE('',#866,#867);
#599=VERTEX_POINT('',#868);
#600=B_SPLINE_CURVE_WITH_KNOTS('',3,(#869,#870,#871,#872,#873,#874),.UNSPECIFIED.,.F.,.F.,(4,1,1,4),(0.0,0.0768078517957478,0.221894033081217,0.380007916089636),.UNSPECIFIED.);
#601=B_SPLINE_CURVE_WITH_KNOTS('',3,(#875,#876,#877,#878,#879),.UNSPECIFIED.,.F.,.F.,(4,1,4),(-0.299752891371901,-0.144028776347926,-0.0),.UNSPECIFIED.);
#602=VERTEX_POINT('',#880);
#603=VERTEX_POINT('',#881);
#604=B_SPLINE_CURVE_WITH_KNOTS('',3,(#882,#883,#884,#885,#886,#887),.UNSPECIFIED.,.F.,.F.,(4,1,1,4),(0.0,0.0768078517957478,0.221894033081217,0.380007916089636),.UNSPECIFIED.);
#605=VERTEX_POINT('',#888);
#606=B_SPLINE_CURVE_WITH_KNOTS('',3,(#889,#890,#891,#892,#893,#894),.UNSPECIFIED.,.F.,.F.,(4,1,1,4),(0.0,0.0768078517957478,0.221894033081217,0.380007916089636),.UNSPECIFIED.);
#607=VERTEX_POINT('',#895);
#608=LINE('',#896,#897);
#609=VERTEX_POINT('',#898);
#610=B_SPLINE_CURVE_WITH_KNOTS('',3,(#899,#900,#901,#902,#903,#904),.UNSPECIFIED.,.F.,.F.,(4,1,1,4),(0.0,0.0768078517957478,0.221894033081217,0.380007916089636),.UNSPECIFIED.);
#611=VERTEX_POINT('',#905);
#612=B_SPLINE_CURVE_WITH_KNOTS('',3,(#906,#907,#908,#909,#910,#911),.UNSPECIFIED.,.F.,.F.,(4,1,1,4),(0.0,0.0768078517957478,0.221894033081217,0.380007916089636),.UNSPECIFIED.);
#613=LINE('',#912,#913);
#614=VERTEX_POINT('',#914);
#615=VERTEX_POINT('',#915);
#616=LINE('',#916,#917);
#617=VERTEX_POINT('',#918);
#618=LINE('',#919,#920);
#619=VERTEX_POINT('',#921);
#620=LINE('',#922,#923);
#621=LINE('',#924,#925);
#622=VERTEX_POINT('',#926);
#623=VERTEX_POINT('',#927);
#624=B_SPLINE_CURVE_WITH_KNOTS('',3,(#928,#929,#930,#931,#932),.UNSPECIFIED.,.F.,.F.,(4,1,4),(-0.299752891371901,-0.144028776347926,-0.0),.UNSPECIFIED.);
#625=VERTEX_POINT('',#933);
#626=B_SPLINE_CURVE_WITH_KNOTS('',3,(#934,#935,#936,#937,#938),.UNSPECIFIED.,.F.,.F.,(4,1,4),(-0.299752891371901,-0.144028776347926,-0.0),.UNSPECIFIED.);
#627=VERTEX_POINT('',#939);
#628=LINE('',#940,#941);
#629=VERTEX_POINT('',#942);
#630=B_SPLINE_CURVE_WITH_KNOTS('',3,(#943,#944,#945,#946,#947),.UNSPECIFIED.,.F.,.F.,(4,1,4),(0.0,0.144028776347926,0.299752891371901),.UNSPECIFIED.);
#631=VERTEX_POINT('',#948);
#632=B_SPLINE_CURVE_WITH_KNOTS('',3,(#949,#950,#951,#952,#953),.UNSPECIFIED.,.F.,.F.,(4,1,4),(0.0,0.144028776347926,0.299752891371901),.UNSPECIFIED.);
#633=LINE('',#954,#955);
#634=VERTEX_POINT('',#956);
#635=VERTEX_POINT('',#957);
#636=LINE('',#958,#959);
#637=VERTEX_POINT('',#960);
#638=CIRCLE('',#961,0.0200000000565563);
#639=VERTEX_POINT('',#962);
#640=LINE('',#963,#964);
#641=CIRCLE('',#965,0.0200000000565563);
#642=VERTEX_POINT('',#966);
#643=VERTEX_POINT('',#967);
#644=LINE('',#968,#969);
#645=VERTEX_POINT('',#970);
#646=CIRCLE('',#971,0.0200000000565563);
#647=VERTEX_POINT('',#972);
#648=LINE('',#973,#974);
#649=CIRCLE('',#975,0.0200000000565563);
#650=VERTEX_POINT('',#976);
#651=VERTEX_POINT('',#977);
#652=LINE('',#978,#979);
#653=VERTEX_POINT('',#980);
#654=LINE('',#981,#982);
#655=VERTEX_POINT('',#983);
#656=LINE('',#984,#985);
#657=LINE('',#986,#987);
#658=VERTEX_POINT('',#988);
#659=VERTEX_POINT('',#989);
#660=LINE('',#990,#991);
#661=VERTEX_POINT('',#992);
#662=B_SPLINE_CURVE_WITH_KNOTS('',3,(#993,#994,#995,#996,#997,#998),.UNSPECIFIED.,.F.,.F.,(4,1,1,4),(0.0,0.0768078517957478,0.221894033081217,0.380007916089636),.UNSPECIFIED.);
#663=VERTEX_POINT('',#999);
#664=LINE('',#1000,#1001);
#665=B_SPLINE_CURVE_WITH_KNOTS('',3,(#1002,#1003,#1004,#1005,#1006,#1007),.UNSPECIFIED.,.F.,.F.,(4,1,1,4),(0.0,0.0768078517957478,0.221894033081217,0.380007916089636),.UNSPECIFIED.);
#666=VERTEX_POINT('',#1008);
#667=VERTEX_POINT('',#1009);
#668=LINE('',#1010,#1011);
#669=VERTEX_POINT('',#1012);
#670=B_SPLINE_CURVE_WITH_KNOTS('',3,(#1013,#1014,#1015,#1016,#1017),.UNSPECIFIED.,.F.,.F.,(4,1,4),(-0.299752891371901,-0.144028776347926,-0.0),.UNSPECIFIED.);
#671=VERTEX_POINT('',#1018);
#672=LINE('',#1019,#1020);
#673=B_SPLINE_CURVE_WITH_KNOTS('',3,(#1021,#1022,#1023,#1024,#1025),.UNSPECIFIED.,.F.,.F.,(4,1,4),(-0.299752891371901,-0.144028776347926,-0.0),.UNSPECIFIED.);
#674=VERTEX_POINT('',#1026);
#675=VERTEX_POINT('',#1027);
#676=LINE('',#1028,#1029);
#677=VERTEX_POINT('',#1030);
#678=LINE('',#1031,#1032);
#679=VERTEX_POINT('',#1033);
#680=LINE('',#1034,#1035);
#681=LINE('',#1036,#1037);
#682=CARTESIAN_POINT('',(0.12,0.0118768408081619,0.03));
#683=CARTESIAN_POINT('',(0.12,-0.0185666471787388,0.03));
#684=CARTESIAN_POINT('',(0.12,0.5,0.03));
#685=VECTOR('',#1038,1.0);
#686=CARTESIAN_POINT('',(-0.104022271319991,-0.0263688608811208,0.03));
#687=CARTESIAN_POINT('',(0.195,-0.01,0.03));
#688=CARTESIAN_POINT('',(0.143395421655967,-0.0161706241308075,0.03));
#689=CARTESIAN_POINT('',(0.0440619204556541,-0.0280484403861384,0.03));
#690=CARTESIAN_POINT('',(-0.0559617350488463,-0.0269139662752433,0.03));
#691=CARTESIAN_POINT('',(-0.104022271319991,-0.0263688608811208,0.03));
#692=CARTESIAN_POINT('',(-0.1622174150798,-0.0198766968041807,0.03));
#693=CARTESIAN_POINT('',(-0.0943468644278694,-0.0274482349490682,0.03));
#694=VECTOR('',#1039,1.0);
#695=CARTESIAN_POINT('',(-0.171025609621681,0.0166863997817016,0.03));
#696=AXIS2_PLACEMENT_3D('',#1040,#1041,#1042);
#697=CARTESIAN_POINT('',(-0.171025609621681,0.0166863997817016,0.03));
#698=CARTESIAN_POINT('',(-0.154031800606375,0.0279151122512486,0.03));
#699=CARTESIAN_POINT('',(-0.0817110886960306,0.0386142595930374,0.03));
#700=CARTESIAN_POINT('',(0.0450458326641087,0.0369102454093378,0.03));
#701=CARTESIAN_POINT('',(0.143124220808784,0.00511686364172977,0.03));
#702=CARTESIAN_POINT('',(0.195,-0.01,0.03));
#703=CARTESIAN_POINT('',(-0.132697225514409,0.00915444383046927,0.03));
#704=CARTESIAN_POINT('',(-0.157726837970358,-0.00738395090133603,0.03));
#705=AXIS2_PLACEMENT_3D('',#1043,#1044,#1045);
#706=AXIS2_PLACEMENT_3D('',#1046,#1047,#1048);
#707=CARTESIAN_POINT('',(0.12,0.0118768408081619,0.27));
#708=CARTESIAN_POINT('',(0.12,-0.0185666471787388,0.27));
#709=CARTESIAN_POINT('',(0.12,0.5,0.27));
#710=VECTOR('',#1049,1.0);
#711=CARTESIAN_POINT('',(-0.104022271319991,-0.0263688608811208,0.27));
#712=CARTESIAN_POINT('',(0.195,-0.01,0.27));
#713=CARTESIAN_POINT('',(0.143395421655967,-0.0161706241308075,0.27));
#714=CARTESIAN_POINT('',(0.0440619204556541,-0.0280484403861384,0.27));
#715=CARTESIAN_POINT('',(-0.0559617350488463,-0.0269139662752433,0.27));
#716=CARTESIAN_POINT('',(-0.104022271319991,-0.0263688608811208,0.27));
#717=CARTESIAN_POINT('',(-0.1622174150798,-0.0198766968041807,0.27));
#718=CARTESIAN_POINT('',(-0.0961988163214357,-0.027241633937732,0.27));
#719=VECTOR('',#1050,1.0);
#720=CARTESIAN_POINT('',(-0.171025609621681,0.0166863997817016,0.27));
#721=AXIS2_PLACEMENT_3D('',#1051,#1052,#1053);
#722=CARTESIAN_POINT('',(-0.171025609621681,0.0166863997817016,0.27));
#723=CARTESIAN_POINT('',(-0.154031800606375,0.0279151122512486,0.27));
#724=CARTESIAN_POINT('',(-0.0817110886960306,0.0386142595930374,0.27));
#725=CARTESIAN_POINT('',(0.0450458326641087,0.0369102454093378,0.27));
#726=CARTESIAN_POINT('',(0.143124220808784,0.00511686364172977,0.27));
#727=CARTESIAN_POINT('',(0.195,-0.01,0.27));
#728=CARTESIAN_POINT('',(-0.132697225514409,0.00915444383046927,0.27));
#729=CARTESIAN_POINT('',(-0.157726837970358,-0.00738395090133603,0.27));
#730=AXIS2_PLACEMENT_3D('',#1054,#1055,#1056);
#731=AXIS2_PLACEMENT_3D('',#1057,#1058,#1059);
#732=CARTESIAN_POINT('',(-0.180000000275563,-5.65471987764257E-011,0.27));
#733=CARTESIAN_POINT('',(-0.180000000275563,-5.65471987764257E-011,0.3));
#734=CARTESIAN_POINT('',(-0.180000000275563,-5.65471987764257E-011,0.285));
#735=VECTOR('',#1060,1.0);
#736=CARTESIAN_POINT('',(-0.171025609621681,0.0166863997817016,0.3));
#737=AXIS2_PLACEMENT_3D('',#1061,#1062,#1063);
#738=CARTESIAN_POINT('',(-0.171025609621681,0.0166863997817016,0.27));
#739=CARTESIAN_POINT('',(-0.171025609621681,0.0166863997817016,0.0));
#740=VECTOR('',#1064,1.0);
#741=AXIS2_PLACEMENT_3D('',#1065,#1066,#1067);
#742=CARTESIAN_POINT('',(-0.1622174150798,-0.0198766968041807,0.27));
#743=CARTESIAN_POINT('',(-0.104022271319991,-0.0263688608811208,0.27));
#744=CARTESIAN_POINT('',(-0.0961988163214357,-0.027241633937732,0.27));
#745=VECTOR('',#1068,1.0);
#746=CARTESIAN_POINT('',(-0.104022271319991,-0.0263688608811208,0.3));
#747=CARTESIAN_POINT('',(-0.104022271319991,-0.0263688608811208,0.0));
#748=VECTOR('',#1069,1.0);
#749=CARTESIAN_POINT('',(-0.1622174150798,-0.0198766968041807,0.3));
#750=CARTESIAN_POINT('',(-0.1622174150798,-0.0198766968041807,0.3));
#751=VECTOR('',#1070,1.0);
#752=CARTESIAN_POINT('',(-0.1622174150798,-0.0198766968041807,0.0));
#753=VECTOR('',#1071,1.0);
#754=CARTESIAN_POINT('',(0.12,-0.0185666471787388,0.27));
#755=CARTESIAN_POINT('',(0.12,0.0118768408081619,0.27));
#756=CARTESIAN_POINT('',(0.12,0.5,0.27));
#757=VECTOR('',#1072,1.0);
#758=CARTESIAN_POINT('',(0.195,-0.01,0.27));
#759=CARTESIAN_POINT('',(-0.171025609621681,0.0166863997817016,0.27));
#760=CARTESIAN_POINT('',(-0.154031800606375,0.0279151122512486,0.27));
#761=CARTESIAN_POINT('',(-0.0817110886960306,0.0386142595930374,0.27));
#762=CARTESIAN_POINT('',(0.0450458326641087,0.0369102454093378,0.27));
#763=CARTESIAN_POINT('',(0.143124220808784,0.00511686364172977,0.27));
#764=CARTESIAN_POINT('',(0.195,-0.01,0.27));
#765=CARTESIAN_POINT('',(0.195,-0.01,0.27));
#766=CARTESIAN_POINT('',(0.143395421655967,-0.0161706241308075,0.27));
#767=CARTESIAN_POINT('',(0.0440619204556541,-0.0280484403861384,0.27));
#768=CARTESIAN_POINT('',(-0.0559617350488463,-0.0269139662752433,0.27));
#769=CARTESIAN_POINT('',(-0.104022271319991,-0.0263688608811208,0.27));
#770=CARTESIAN_POINT('',(0.195,-0.01,0.3));
#771=CARTESIAN_POINT('',(0.12,-0.0185666471787388,0.3));
#772=CARTESIAN_POINT('',(0.195,-0.01,0.3));
#773=CARTESIAN_POINT('',(0.143395421655967,-0.0161706241308075,0.3));
#774=CARTESIAN_POINT('',(0.0440619204556541,-0.0280484403861384,0.3));
#775=CARTESIAN_POINT('',(-0.0559617350488463,-0.0269139662752433,0.3));
#776=CARTESIAN_POINT('',(-0.104022271319991,-0.0263688608811208,0.3));
#777=CARTESIAN_POINT('',(-0.104022271319991,-0.0263688608811208,0.3));
#778=CARTESIAN_POINT('',(0.195,-0.01,0.3));
#779=CARTESIAN_POINT('',(0.143395421655967,-0.0161706241308075,0.3));
#780=CARTESIAN_POINT('',(0.0440619204556541,-0.0280484403861384,0.3));
#781=CARTESIAN_POINT('',(-0.0559617350488463,-0.0269139662752433,0.3));
#782=CARTESIAN_POINT('',(-0.104022271319991,-0.0263688608811208,0.3));
#783=CARTESIAN_POINT('',(-0.104022271319991,-0.0263688608811208,0.27));
#784=CARTESIAN_POINT('',(-0.104022271319991,-0.0263688608811208,0.0));
#785=VECTOR('',#1073,1.0);
#786=CARTESIAN_POINT('',(0.12,-0.0185666471787388,0.27));
#787=CARTESIAN_POINT('',(0.195,-0.01,0.27));
#788=CARTESIAN_POINT('',(0.143395421655967,-0.0161706241308075,0.27));
#789=CARTESIAN_POINT('',(0.0440619204556541,-0.0280484403861384,0.27));
#790=CARTESIAN_POINT('',(-0.0559617350488463,-0.0269139662752433,0.27));
#791=CARTESIAN_POINT('',(-0.104022271319991,-0.0263688608811208,0.27));
#792=CARTESIAN_POINT('',(0.195,-0.01,0.27));
#793=CARTESIAN_POINT('',(0.195,-0.01,0.27));
#794=CARTESIAN_POINT('',(0.143395421655967,-0.0161706241308075,0.27));
#795=CARTESIAN_POINT('',(0.0440619204556541,-0.0280484403861384,0.27));
#796=CARTESIAN_POINT('',(-0.0559617350488463,-0.0269139662752433,0.27));
#797=CARTESIAN_POINT('',(-0.104022271319991,-0.0263688608811208,0.27));
#798=CARTESIAN_POINT('',(0.195,-0.01,0.0));
#799=VECTOR('',#1074,1.0);
#800=CARTESIAN_POINT('',(-0.180000000275563,-5.65471987764257E-011,0.3));
#801=CARTESIAN_POINT('',(-0.180000000275563,-5.65471987764257E-011,0.27));
#802=CARTESIAN_POINT('',(-0.180000000275563,-5.65471987764257E-011,0.285));
#803=VECTOR('',#1075,1.0);
#804=CARTESIAN_POINT('',(-0.1622174150798,-0.0198766968041807,0.27));
#805=AXIS2_PLACEMENT_3D('',#1076,#1077,#1078);
#806=CARTESIAN_POINT('',(-0.1622174150798,-0.0198766968041807,0.3));
#807=CARTESIAN_POINT('',(-0.1622174150798,-0.0198766968041807,0.0));
#808=VECTOR('',#1079,1.0);
#809=AXIS2_PLACEMENT_3D('',#1080,#1081,#1082);
#810=CARTESIAN_POINT('',(0.195,-0.01,0.27));
#811=CARTESIAN_POINT('',(0.12,0.0118768408081619,0.27));
#812=CARTESIAN_POINT('',(-0.171025609621681,0.0166863997817016,0.27));
#813=CARTESIAN_POINT('',(-0.154031800606375,0.0279151122512486,0.27));
#814=CARTESIAN_POINT('',(-0.0817110886960306,0.0386142595930374,0.27));
#815=CARTESIAN_POINT('',(0.0450458326641087,0.0369102454093378,0.27));
#816=CARTESIAN_POINT('',(0.143124220808784,0.00511686364172977,0.27));
#817=CARTESIAN_POINT('',(0.195,-0.01,0.27));
#818=CARTESIAN_POINT('',(-0.171025609621681,0.0166863997817016,0.27));
#819=CARTESIAN_POINT('',(-0.171025609621681,0.0166863997817016,0.27));
#820=CARTESIAN_POINT('',(-0.154031800606375,0.0279151122512486,0.27));
#821=CARTESIAN_POINT('',(-0.0817110886960306,0.0386142595930374,0.27));
#822=CARTESIAN_POINT('',(0.0450458326641087,0.0369102454093378,0.27));
#823=CARTESIAN_POINT('',(0.143124220808784,0.00511686364172977,0.27));
#824=CARTESIAN_POINT('',(0.195,-0.01,0.27));
#825=CARTESIAN_POINT('',(-0.171025609621681,0.0166863997817016,0.3));
#826=CARTESIAN_POINT('',(-0.171025609621681,0.0166863997817016,0.0));
#827=VECTOR('',#1083,1.0);
#828=CARTESIAN_POINT('',(0.12,0.0118768408081619,0.3));
#829=CARTESIAN_POINT('',(-0.171025609621681,0.0166863997817016,0.3));
#830=CARTESIAN_POINT('',(-0.154031800606375,0.0279151122512486,0.3));
#831=CARTESIAN_POINT('',(-0.0817110886960306,0.0386142595930374,0.3));
#832=CARTESIAN_POINT('',(0.0450458326641087,0.0369102454093378,0.3));
#833=CARTESIAN_POINT('',(0.143124220808784,0.00511686364172977,0.3));
#834=CARTESIAN_POINT('',(0.195,-0.01,0.3));
#835=CARTESIAN_POINT('',(0.195,-0.01,0.3));
#836=CARTESIAN_POINT('',(-0.171025609621681,0.0166863997817016,0.3));
#837=CARTESIAN_POINT('',(-0.154031800606375,0.0279151122512486,0.3));
#838=CARTESIAN_POINT('',(-0.0817110886960306,0.0386142595930374,0.3));
#839=CARTESIAN_POINT('',(0.0450458326641087,0.0369102454093378,0.3));
#840=CARTESIAN_POINT('',(0.143124220808784,0.00511686364172977,0.3));
#841=CARTESIAN_POINT('',(0.195,-0.01,0.3));
#842=CARTESIAN_POINT('',(0.195,-0.01,0.0));
#843=VECTOR('',#1084,1.0);
#844=CARTESIAN_POINT('',(-0.180000000275563,-5.65471987764257E-011,0.0));
#845=CARTESIAN_POINT('',(-0.180000000275563,-5.65471987764257E-011,0.03));
#846=CARTESIAN_POINT('',(-0.180000000275563,-5.65471987764257E-011,0.015));
#847=VECTOR('',#1085,1.0);
#848=CARTESIAN_POINT('',(-0.171025609621681,0.0166863997817016,0.03));
#849=AXIS2_PLACEMENT_3D('',#1086,#1087,#1088);
#850=CARTESIAN_POINT('',(-0.171025609621681,0.0166863997817016,0.0));
#851=CARTESIAN_POINT('',(-0.171025609621681,0.0166863997817016,0.0));
#852=VECTOR('',#1089,1.0);
#853=AXIS2_PLACEMENT_3D('',#1090,#1091,#1092);
#854=CARTESIAN_POINT('',(-0.180000000275563,-5.65471987764257E-011,0.03));
#855=CARTESIAN_POINT('',(-0.180000000275563,-5.65471987764257E-011,0.0));
#856=CARTESIAN_POINT('',(-0.180000000275563,-5.65471987764257E-011,0.015));
#857=VECTOR('',#1093,1.0);
#858=CARTESIAN_POINT('',(-0.1622174150798,-0.0198766968041807,0.0));
#859=AXIS2_PLACEMENT_3D('',#1094,#1095,#1096);
#860=CARTESIAN_POINT('',(-0.1622174150798,-0.0198766968041807,0.03));
#861=CARTESIAN_POINT('',(-0.1622174150798,-0.0198766968041807,0.0));
#862=VECTOR('',#1097,1.0);
#863=AXIS2_PLACEMENT_3D('',#1098,#1099,#1100);
#864=CARTESIAN_POINT('',(0.12,-0.0185666471787388,0.03));
#865=CARTESIAN_POINT('',(0.12,0.0118768408081619,0.03));
#866=CARTESIAN_POINT('',(0.12,0.5,0.03));
#867=VECTOR('',#1101,1.0);
#868=CARTESIAN_POINT('',(0.195,-0.01,0.03));
#869=CARTESIAN_POINT('',(-0.171025609621681,0.0166863997817016,0.03));
#870=CARTESIAN_POINT('',(-0.154031800606375,0.0279151122512486,0.03));
#871=CARTESIAN_POINT('',(-0.0817110886960306,0.0386142595930374,0.03));
#872=CARTESIAN_POINT('',(0.0450458326641087,0.0369102454093378,0.03));
#873=CARTESIAN_POINT('',(0.143124220808784,0.00511686364172977,0.03));
#874=CARTESIAN_POINT('',(0.195,-0.01,0.03));
#875=CARTESIAN_POINT('',(0.195,-0.01,0.03));
#876=CARTESIAN_POINT('',(0.143395421655967,-0.0161706241308075,0.03));
#877=CARTESIAN_POINT('',(0.0440619204556541,-0.0280484403861384,0.03));
#878=CARTESIAN_POINT('',(-0.0559617350488463,-0.0269139662752433,0.03));
#879=CARTESIAN_POINT('',(-0.104022271319991,-0.0263688608811208,0.03));
#880=CARTESIAN_POINT('',(0.195,-0.01,0.0));
#881=CARTESIAN_POINT('',(0.12,0.0118768408081619,0.0));
#882=CARTESIAN_POINT('',(-0.171025609621681,0.0166863997817016,0.0));
#883=CARTESIAN_POINT('',(-0.154031800606375,0.0279151122512486,0.0));
#884=CARTESIAN_POINT('',(-0.0817110886960306,0.0386142595930374,0.0));
#885=CARTESIAN_POINT('',(0.0450458326641087,0.0369102454093378,0.0));
#886=CARTESIAN_POINT('',(0.143124220808784,0.00511686364172977,0.0));
#887=CARTESIAN_POINT('',(0.195,-0.01,0.0));
#888=CARTESIAN_POINT('',(-0.171025609621681,0.0166863997817016,0.0));
#889=CARTESIAN_POINT('',(-0.171025609621681,0.0166863997817016,0.0));
#890=CARTESIAN_POINT('',(-0.154031800606375,0.0279151122512486,0.0));
#891=CARTESIAN_POINT('',(-0.0817110886960306,0.0386142595930374,0.0));
#892=CARTESIAN_POINT('',(0.0450458326641087,0.0369102454093378,0.0));
#893=CARTESIAN_POINT('',(0.143124220808784,0.00511686364172977,0.0));
#894=CARTESIAN_POINT('',(0.195,-0.01,0.0));
#895=CARTESIAN_POINT('',(-0.171025609621681,0.0166863997817016,0.03));
#896=CARTESIAN_POINT('',(-0.171025609621681,0.0166863997817016,0.0));
#897=VECTOR('',#1102,1.0);
#898=CARTESIAN_POINT('',(0.12,0.0118768408081619,0.03));
#899=CARTESIAN_POINT('',(-0.171025609621681,0.0166863997817016,0.03));
#900=CARTESIAN_POINT('',(-0.154031800606375,0.0279151122512486,0.03));
#901=CARTESIAN_POINT('',(-0.0817110886960306,0.0386142595930374,0.03));
#902=CARTESIAN_POINT('',(0.0450458326641087,0.0369102454093378,0.03));
#903=CARTESIAN_POINT('',(0.143124220808784,0.00511686364172977,0.03));
#904=CARTESIAN_POINT('',(0.195,-0.01,0.03));
#905=CARTESIAN_POINT('',(0.195,-0.01,0.03));
#906=CARTESIAN_POINT('',(-0.171025609621681,0.0166863997817016,0.03));
#907=CARTESIAN_POINT('',(-0.154031800606375,0.0279151122512486,0.03));
#908=CARTESIAN_POINT('',(-0.0817110886960306,0.0386142595930374,0.03));
#909=CARTESIAN_POINT('',(0.0450458326641087,0.0369102454093378,0.03));
#910=CARTESIAN_POINT('',(0.143124220808784,0.00511686364172977,0.03));
#911=CARTESIAN_POINT('',(0.195,-0.01,0.03));
#912=CARTESIAN_POINT('',(0.195,-0.01,0.0));
#913=VECTOR('',#1103,1.0);
#914=CARTESIAN_POINT('',(-0.104022271319991,-0.0263688608811208,0.03));
#915=CARTESIAN_POINT('',(-0.1622174150798,-0.0198766968041807,0.03));
#916=CARTESIAN_POINT('',(-0.0943468644278694,-0.0274482349490682,0.03));
#917=VECTOR('',#1104,1.0);
#918=CARTESIAN_POINT('',(-0.1622174150798,-0.0198766968041807,0.0));
#919=CARTESIAN_POINT('',(-0.1622174150798,-0.0198766968041807,0.0));
#920=VECTOR('',#1105,1.0);
#921=CARTESIAN_POINT('',(-0.104022271319991,-0.0263688608811208,0.0));
#922=CARTESIAN_POINT('',(-0.1622174150798,-0.0198766968041807,0.0));
#923=VECTOR('',#1106,1.0);
#924=CARTESIAN_POINT('',(-0.104022271319991,-0.0263688608811208,0.0));
#925=VECTOR('',#1107,1.0);
#926=CARTESIAN_POINT('',(0.195,-0.01,0.03));
#927=CARTESIAN_POINT('',(0.12,-0.0185666471787388,0.03));
#928=CARTESIAN_POINT('',(0.195,-0.01,0.03));
#929=CARTESIAN_POINT('',(0.143395421655967,-0.0161706241308075,0.03));
#930=CARTESIAN_POINT('',(0.0440619204556541,-0.0280484403861384,0.03));
#931=CARTESIAN_POINT('',(-0.0559617350488463,-0.0269139662752433,0.03));
#932=CARTESIAN_POINT('',(-0.104022271319991,-0.0263688608811208,0.03));
#933=CARTESIAN_POINT('',(-0.104022271319991,-0.0263688608811208,0.03));
#934=CARTESIAN_POINT('',(0.195,-0.01,0.03));
#935=CARTESIAN_POINT('',(0.143395421655967,-0.0161706241308075,0.03));
#936=CARTESIAN_POINT('',(0.0440619204556541,-0.0280484403861384,0.03));
#937=CARTESIAN_POINT('',(-0.0559617350488463,-0.0269139662752433,0.03));
#938=CARTESIAN_POINT('',(-0.104022271319991,-0.0263688608811208,0.03));
#939=CARTESIAN_POINT('',(-0.104022271319991,-0.0263688608811208,0.0));
#940=CARTESIAN_POINT('',(-0.104022271319991,-0.0263688608811208,0.0));
#941=VECTOR('',#1108,1.0);
#942=CARTESIAN_POINT('',(0.12,-0.0185666471787388,0.0));
#943=CARTESIAN_POINT('',(-0.104022271319991,-0.0263688608811208,0.0));
#944=CARTESIAN_POINT('',(-0.0559617350488463,-0.0269139662752433,0.0));
#945=CARTESIAN_POINT('',(0.0440619204556541,-0.0280484403861384,0.0));
#946=CARTESIAN_POINT('',(0.143395421655967,-0.0161706241308075,0.0));
#947=CARTESIAN_POINT('',(0.195,-0.01,0.0));
#948=CARTESIAN_POINT('',(0.195,-0.01,0.0));
#949=CARTESIAN_POINT('',(-0.104022271319991,-0.0263688608811208,0.0));
#950=CARTESIAN_POINT('',(-0.0559617350488463,-0.0269139662752433,0.0));
#951=CARTESIAN_POINT('',(0.0440619204556541,-0.0280484403861384,0.0));
#952=CARTESIAN_POINT('',(0.143395421655967,-0.0161706241308075,0.0));
#953=CARTESIAN_POINT('',(0.195,-0.01,0.0));
#954=CARTESIAN_POINT('',(0.195,-0.01,0.0));
#955=VECTOR('',#1109,1.0);
#956=CARTESIAN_POINT('',(-0.180000000275563,-5.65471987764257E-011,0.03));
#957=CARTESIAN_POINT('',(-0.180000000275563,-5.65471987764257E-011,0.27));
#958=CARTESIAN_POINT('',(-0.180000000275563,-5.65471987764257E-011,0.15));
#959=VECTOR('',#1110,1.0);
#960=CARTESIAN_POINT('',(-0.171025609621681,0.0166863997817016,0.27));
#961=AXIS2_PLACEMENT_3D('',#1111,#1112,#1113);
#962=CARTESIAN_POINT('',(-0.171025609621681,0.0166863997817016,0.03));
#963=CARTESIAN_POINT('',(-0.171025609621681,0.0166863997817016,0.0));
#964=VECTOR('',#1114,1.0);
#965=AXIS2_PLACEMENT_3D('',#1115,#1116,#1117);
#966=CARTESIAN_POINT('',(-0.180000000275563,-5.65471987764257E-011,0.27));
#967=CARTESIAN_POINT('',(-0.180000000275563,-5.65471987764257E-011,0.03));
#968=CARTESIAN_POINT('',(-0.180000000275563,-5.65471987764257E-011,0.15));
#969=VECTOR('',#1118,1.0);
#970=CARTESIAN_POINT('',(-0.1622174150798,-0.0198766968041807,0.03));
#971=AXIS2_PLACEMENT_3D('',#1119,#1120,#1121);
#972=CARTESIAN_POINT('',(-0.1622174150798,-0.0198766968041807,0.27));
#973=CARTESIAN_POINT('',(-0.1622174150798,-0.0198766968041807,0.0));
#974=VECTOR('',#1122,1.0);
#975=AXIS2_PLACEMENT_3D('',#1123,#1124,#1125);
#976=CARTESIAN_POINT('',(-0.1622174150798,-0.0198766968041807,0.03));
#977=CARTESIAN_POINT('',(-0.104022271319991,-0.0263688608811208,0.03));
#978=CARTESIAN_POINT('',(-0.0943468644278694,-0.0274482349490682,0.03));
#979=VECTOR('',#1126,1.0);
#980=CARTESIAN_POINT('',(-0.104022271319991,-0.0263688608811208,0.27));
#981=CARTESIAN_POINT('',(-0.104022271319991,-0.0263688608811208,0.0));
#982=VECTOR('',#1127,1.0);
#983=CARTESIAN_POINT('',(-0.1622174150798,-0.0198766968041807,0.27));
#984=CARTESIAN_POINT('',(-0.0961988163214357,-0.027241633937732,0.27));
#985=VECTOR('',#1128,1.0);
#986=CARTESIAN_POINT('',(-0.1622174150798,-0.0198766968041807,0.0));
#987=VECTOR('',#1129,1.0);
#988=CARTESIAN_POINT('',(0.12,0.0118768408081619,0.27));
#989=CARTESIAN_POINT('',(0.12,0.0118768408081619,0.03));
#990=CARTESIAN_POINT('',(0.12,0.0118768408081619,0.0));
#991=VECTOR('',#1130,1.0);
#992=CARTESIAN_POINT('',(-0.171025609621681,0.0166863997817016,0.03));
#993=CARTESIAN_POINT('',(-0.171025609621681,0.0166863997817016,0.03));
#994=CARTESIAN_POINT('',(-0.154031800606375,0.0279151122512486,0.03));
#995=CARTESIAN_POINT('',(-0.0817110886960306,0.0386142595930374,0.03));
#996=CARTESIAN_POINT('',(0.0450458326641087,0.0369102454093378,0.03));
#997=CARTESIAN_POINT('',(0.143124220808784,0.00511686364172977,0.03));
#998=CARTESIAN_POINT('',(0.195,-0.01,0.03));
#999=CARTESIAN_POINT('',(-0.171025609621681,0.0166863997817016,0.27));
#1000=CARTESIAN_POINT('',(-0.171025609621681,0.0166863997817016,0.0));
#1001=VECTOR('',#1131,1.0);
#1002=CARTESIAN_POINT('',(-0.171025609621681,0.0166863997817016,0.27));
#1003=CARTESIAN_POINT('',(-0.154031800606375,0.0279151122512486,0.27));
#1004=CARTESIAN_POINT('',(-0.0817110886960306,0.0386142595930374,0.27));
#1005=CARTESIAN_POINT('',(0.0450458326641087,0.0369102454093378,0.27));
#1006=CARTESIAN_POINT('',(0.143124220808784,0.00511686364172977,0.27));
#1007=CARTESIAN_POINT('',(0.195,-0.01,0.27));
#1008=CARTESIAN_POINT('',(0.12,-0.0185666471787388,0.03));
#1009=CARTESIAN_POINT('',(0.12,-0.0185666471787388,0.27));
#1010=CARTESIAN_POINT('',(0.12,-0.0185666471787388,0.0));
#1011=VECTOR('',#1132,1.0);
#1012=CARTESIAN_POINT('',(-0.104022271319991,-0.0263688608811208,0.27));
#1013=CARTESIAN_POINT('',(0.195,-0.01,0.27));
#1014=CARTESIAN_POINT('',(0.143395421655967,-0.0161706241308075,0.27));
#1015=CARTESIAN_POINT('',(0.0440619204556541,-0.0280484403861384,0.27));
#1016=CARTESIAN_POINT('',(-0.0559617350488463,-0.0269139662752433,0.27));
#1017=CARTESIAN_POINT('',(-0.104022271319991,-0.0263688608811208,0.27));
#1018=CARTESIAN_POINT('',(-0.104022271319991,-0.0263688608811208,0.03));
#1019=CARTESIAN_POINT('',(-0.104022271319991,-0.0263688608811208,0.0));
#1020=VECTOR('',#1133,1.0);
#1021=CARTESIAN_POINT('',(0.195,-0.01,0.03));
#1022=CARTESIAN_POINT('',(0.143395421655967,-0.0161706241308075,0.03));
#1023=CARTESIAN_POINT('',(0.0440619204556541,-0.0280484403861384,0.03));
#1024=CARTESIAN_POINT('',(-0.0559617350488463,-0.0269139662752433,0.03));
#1025=CARTESIAN_POINT('',(-0.104022271319991,-0.0263688608811208,0.03));
#1026=CARTESIAN_POINT('',(0.12,0.0118768408081619,0.27));
#1027=CARTESIAN_POINT('',(0.12,-0.0185666471787388,0.27));
#1028=CARTESIAN_POINT('',(0.12,0.5,0.27));
#1029=VECTOR('',#1134,1.0);
#1030=CARTESIAN_POINT('',(0.12,-0.0185666471787388,0.03));
#1031=CARTESIAN_POINT('',(0.12,-0.0185666471787388,0.0));
#1032=VECTOR('',#1135,1.0);
#1033=CARTESIAN_POINT('',(0.12,0.0118768408081619,0.03));
#1034=CARTESIAN_POINT('',(0.12,0.5,0.03));
#1035=VECTOR('',#1136,1.0);
#1036=CARTESIAN_POINT('',(0.12,0.0118768408081619,0.0));
#1037=VECTOR('',#1137,1.0);
#1038=DIRECTION('',(0.0,1.0,0.0));
#1039=DIRECTION('',(-0.993834834571843,0.110870742721235,0.0));
#1040=CARTESIAN_POINT('',(-0.160000000219006,-5.65472024494649E-011,0.03));
#1041=DIRECTION('',(0.0,0.0,-1.0));
#1042=DIRECTION('',(1.0,0.0,0.0));
#1043=CARTESIAN_POINT('',(-0.145212031742383,0.000885246464566624,0.03));
#1044=DIRECTION('',(0.0,-0.0,1.0));
#1045=DIRECTION('',(-0.55127982439351,0.834320415198298,0.0));
#1046=CARTESIAN_POINT('',(-0.145212031742383,0.000885246464566624,0.03));
#1047=DIRECTION('',(0.0,-0.0,1.0));
#1048=DIRECTION('',(-0.55127982439351,0.834320415198298,0.0));
#1049=DIRECTION('',(0.0,1.0,0.0));
#1050=DIRECTION('',(-0.993834834571843,0.110870742721235,0.0));
#1051=CARTESIAN_POINT('',(-0.160000000219006,-5.65472024494649E-011,0.27));
#1052=DIRECTION('',(0.0,0.0,-1.0));
#1053=DIRECTION('',(1.0,0.0,0.0));
#1054=CARTESIAN_POINT('',(-0.145212031742383,0.000885246464566624,0.27));
#1055=DIRECTION('',(0.0,-0.0,1.0));
#1056=DIRECTION('',(-0.55127982439351,0.834320415198298,0.0));
#1057=CARTESIAN_POINT('',(-0.145212031742383,0.000885246464566624,0.27));
#1058=DIRECTION('',(0.0,-0.0,1.0));
#1059=DIRECTION('',(-0.55127982439351,0.834320415198298,0.0));
#1060=DIRECTION('',(-0.0,-0.0,-1.0));
#1061=CARTESIAN_POINT('',(-0.160000000219006,-5.65472024494649E-011,0.3));
#1062=DIRECTION('',(0.0,0.0,-1.0));
#1063=DIRECTION('',(1.0,0.0,0.0));
#1064=DIRECTION('',(0.0,0.0,1.0));
#1065=CARTESIAN_POINT('',(-0.160000000219006,-5.65472024494649E-011,0.27));
#1066=DIRECTION('',(0.0,0.0,-1.0));
#1067=DIRECTION('',(1.0,0.0,0.0));
#1068=DIRECTION('',(-0.993834834571843,0.110870742721235,0.0));
#1069=DIRECTION('',(0.0,0.0,1.0));
#1070=DIRECTION('',(-0.993834834571843,0.110870742721235,0.0));
#1071=DIRECTION('',(0.0,0.0,1.0));
#1072=DIRECTION('',(0.0,1.0,0.0));
#1073=DIRECTION('',(0.0,0.0,1.0));
#1074=DIRECTION('',(0.0,0.0,1.0));
#1075=DIRECTION('',(-0.0,-0.0,-1.0));
#1076=CARTESIAN_POINT('',(-0.160000000219006,-5.65472024494649E-011,0.27));
#1077=DIRECTION('',(0.0,0.0,-1.0));
#1078=DIRECTION('',(1.0,0.0,0.0));
#1079=DIRECTION('',(0.0,0.0,1.0));
#1080=CARTESIAN_POINT('',(-0.160000000219006,-5.65472024494649E-011,0.3));
#1081=DIRECTION('',(0.0,0.0,-1.0));
#1082=DIRECTION('',(1.0,0.0,0.0));
#1083=DIRECTION('',(0.0,0.0,1.0));
#1084=DIRECTION('',(0.0,0.0,1.0));
#1085=DIRECTION('',(-0.0,-0.0,-1.0));
#1086=CARTESIAN_POINT('',(-0.160000000219006,-5.65472024494649E-011,0.03));
#1087=DIRECTION('',(0.0,0.0,-1.0));
#1088=DIRECTION('',(1.0,0.0,0.0));
#1089=DIRECTION('',(0.0,0.0,1.0));
#1090=CARTESIAN_POINT('',(-0.160000000219006,-5.65472024494649E-011,0.0));
#1091=DIRECTION('',(0.0,0.0,1.0));
#1092=DIRECTION('',(1.0,0.0,0.0));
#1093=DIRECTION('',(-0.0,-0.0,-1.0));
#1094=CARTESIAN_POINT('',(-0.160000000219006,-5.65472024494649E-011,0.0));
#1095=DIRECTION('',(0.0,0.0,1.0));
#1096=DIRECTION('',(1.0,0.0,0.0));
#1097=DIRECTION('',(0.0,0.0,1.0));
#1098=CARTESIAN_POINT('',(-0.160000000219006,-5.65472024494649E-011,0.03));
#1099=DIRECTION('',(0.0,0.0,-1.0));
#1100=DIRECTION('',(1.0,0.0,0.0));
#1101=DIRECTION('',(0.0,1.0,0.0));
#1102=DIRECTION('',(0.0,0.0,1.0));
#1103=DIRECTION('',(0.0,0.0,1.0));
#1104=DIRECTION('',(-0.993834834571843,0.110870742721235,0.0));
#1105=DIRECTION('',(0.0,0.0,1.0));
#1106=DIRECTION('',(0.993834834571843,-0.110870742721235,0.0));
#1107=DIRECTION('',(0.0,0.0,1.0));
#1108=DIRECTION('',(0.0,0.0,1.0));
#1109=DIRECTION('',(0.0,0.0,1.0));
#1110=DIRECTION('',(-0.0,-0.0,-1.0));
#1111=CARTESIAN_POINT('',(-0.160000000219006,-5.65472024494649E-011,0.27));
#1112=DIRECTION('',(0.0,0.0,-1.0));
#1113=DIRECTION('',(1.0,0.0,0.0));
#1114=DIRECTION('',(0.0,0.0,1.0));
#1115=CARTESIAN_POINT('',(-0.160000000219006,-5.65472024494649E-011,0.03));
#1116=DIRECTION('',(0.0,0.0,-1.0));
#1117=DIRECTION('',(1.0,0.0,0.0));
#1118=DIRECTION('',(-0.0,-0.0,-1.0));
#1119=CARTESIAN_POINT('',(-0.160000000219006,-5.65472024494649E-011,0.03));
#1120=DIRECTION('',(0.0,0.0,-1.0));
#1121=DIRECTION('',(1.0,0.0,0.0));
#1122=DIRECTION('',(0.0,0.0,1.0));
#1123=CARTESIAN_POINT('',(-0.160000000219006,-5.65472024494649E-011,0.27));
#1124=DIRECTION('',(0.0,0.0,-1.0));
#1125=DIRECTION('',(1.0,0.0,0.0));
#1126=DIRECTION('',(-0.993834834571843,0.110870742721235,0.0));
#1127=DIRECTION('',(0.0,0.0,1.0));
#1128=DIRECTION('',(-0.993834834571843,0.110870742721235,0.0));
#1129=DIRECTION('',(0.0,0.0,1.0));
#1130=DIRECTION('',(0.0,0.0,1.0));
#1131=DIRECTION('',(0.0,0.0,1.0));
#1132=DIRECTION('',(-0.0,-0.0,-1.0));
#1133=DIRECTION('',(0.0,0.0,1.0));
#1134=DIRECTION('',(0.0,1.0,0.0));
#1135=DIRECTION('',(-0.0,-0.0,-1.0));
#1136=DIRECTION('',(0.0,1.0,0.0));
#1137=DIRECTION('',(0.0,0.0,1.0));
ENDSEC;
END-ISO-10303-21;
